<?xml version="1.0" encoding="UTF-8" standalone="no"?>
<!-- Created with Inkscape (http://www.inkscape.org/) -->

<svg
   width="183.94614mm"
   height="217.59531mm"
   viewBox="0 0 183.94614 217.59531"
   version="1.1"
   id="svg421"
   inkscape:version="1.2.2 (b0a8486541, 2022-12-01)"
   sodipodi:docname="melulogoinkskape.svg"
   xmlns:inkscape="http://www.inkscape.org/namespaces/inkscape"
   xmlns:sodipodi="http://sodipodi.sourceforge.net/DTD/sodipodi-0.dtd"
   xmlns="http://www.w3.org/2000/svg"
   xmlns:svg="http://www.w3.org/2000/svg">
  <sodipodi:namedview
     id="namedview423"
     pagecolor="#ffffff"
     bordercolor="#000000"
     borderopacity="0.25"
     inkscape:showpageshadow="2"
     inkscape:pageopacity="0.0"
     inkscape:pagecheckerboard="0"
     inkscape:deskcolor="#d1d1d1"
     inkscape:document-units="mm"
     showgrid="false"
     inkscape:zoom="0.74742565"
     inkscape:cx="208.71641"
     inkscape:cy="400.03979"
     inkscape:window-width="1920"
     inkscape:window-height="1011"
     inkscape:window-x="0"
     inkscape:window-y="32"
     inkscape:window-maximized="1"
     inkscape:current-layer="layer1" />
  <defs
     id="defs418" />
  <g
     inkscape:label="Layer 1"
     inkscape:groupmode="layer"
     id="layer1"
     transform="translate(-13.402964,-42.982477)">
    <path
       style="fill:#00f0ff;stroke-width:0.352777"
       d="m 115.52537,260.43537 -1.01315,0.14241 -8.29028,-0.64093 -8.290276,-0.64094 -7.28015,-0.35549 -7.28014,-0.35548 -1.89208,-1.35036 -1.89208,-1.35036 -5.82083,-4.4274 -5.82083,-4.4274 -2.82223,-2.14995 -2.82222,-2.14995 -0.58472,-0.6553 -0.58472,-0.6553 -1.41421,-3.35139 -1.41419,-3.35139 -1.90878,-4.35434 -1.90878,-4.35434 -2.08952,-1.12921 -2.08952,-1.1292 -2.11667,-1.18052 -2.11667,-1.18051 -5.115274,-2.82278 -5.11528,-2.82277 -1.940277,-1.15158 -1.940277,-1.15157 -3.351389,-1.84852 -3.351389,-1.84853 -1.058334,-0.58189 -1.058333,-0.5819 -1.443835,-0.92349 -1.443835,-0.9235 -0.404497,-1.00073 -0.404497,-1.00073 -0.914012,-3.52778 -0.914011,-3.52778 -0.878689,-3.52778 -0.87869,-3.52777 -1.22887,-4.36367 -1.228871,-4.36366 0.107404,-1.10439 0.107403,-1.10439 1.234722,0.0689 1.234723,0.0689 3.175,1.28996 3.175,1.28996 3.880555,1.34679 3.880556,1.34679 4.737594,1.78438 4.737598,1.78437 1.788789,1.21122 1.788796,1.21122 1.76389,1.63246 1.76389,1.63245 1.62581,1.38867 1.62581,1.38867 0.22627,-0.22627 0.22628,-0.22627 0.002,-1.08774 0.002,-1.08773 0.70692,-4.73079 0.70693,-4.73079 0.29784,-0.38448 0.29785,-0.38449 1.3408,-2.46945 1.34079,-2.46944 1.92185,-3.52778 1.92184,-3.52778 0.26239,-0.35278 0.2624,-0.35277 1.86168,-3.52778 1.86168,-3.52778 1.27912,-1.91466 1.27912,-1.91467 0.56276,-0.34214 0.56276,-0.34215 0.84835,0.21832 0.84835,0.21832 0.47275,0.98016 0.47276,0.98015 2.65429,6.87917 2.65429,6.87917 1.21255,3.13809 1.21254,3.13809 0.20005,2.15358 0.20005,2.15357 -2.82188,7.40833 -2.82188,7.40834 -3.80363,10.05416 -3.80363,10.05417 -0.36603,0.95241 -0.36603,0.9524 0.88798,0.81149 0.88798,0.81148 2.40478,2.11667 2.40477,2.11666 1.4522,1.29249 1.4522,1.29248 5.10556,4.44016 5.10524,4.44015 0.3625,-0.008 0.3625,-0.008 5.46805,-1.42014 5.46806,-1.42014 1.8385,-0.46216 1.83851,-0.46216 0.89554,-0.58678 0.895536,-0.58678 0.79373,-1.19591 0.79373,-1.1959 2.20486,-3.21536 2.20488,-3.21536 v -0.2079 -0.20791 l 5.82436,-8.74233 5.82436,-8.74233 -0.87299,-6.12133 -0.87299,-6.12132 -1.06489,-8.29907 -1.06489,-8.29907 -0.35277,-1.86015 -0.35277,-1.86014 -0.21714,-3.24634 -0.21715,-3.24634 1.47994,-4.93889 1.47995,-4.93889 0.27337,-1.05834 0.27337,-1.05833 0.71682,-2.29305 0.71682,-2.29306 1.13357,-3.70417 1.13358,-3.70416 2.30336,-4.93889 2.30336,-4.93889 0.77813,-1.89087 0.77814,-1.89086 -1.17578,-4.16797 -1.17577,-4.16797 -1.01617,-2.56073 -1.01617,-2.56074 -0.38789,1.21124 -0.38788,1.21123 -1.43898,5.64445 -1.43897,5.64444 -0.85966,1.78264 -0.85966,1.78264 -4.76811,5.62569 -4.76812,5.6257 -2.56006,2.96589 -2.56006,2.96589 -2.469436,3.04383 -2.46945,3.04384 -0.95821,2.10416 -0.95821,2.10417 -2.69592,6.35 -2.69592,6.35 -0.22642,0.23962 -0.22625,0.2396 -0.88195,0.20486 -0.88194,0.20486 -0.44556,-0.29175 -0.44557,-0.29175 -0.67887,-2.44979 -0.67887,-2.4498 -0.90185,-4.35302 -0.90185,-4.35303 0.23455,-0.93463 0.23455,-0.93464 2.28269,-3.70416 2.28268,-3.70417 3.71702,-5.82083 3.71702,-5.82084 2.6712,-4.15482 2.671186,-4.15482 1.8879,-2.6937 1.8879,-2.69369 1.52444,-6.02787 1.52443,-6.02787 1.2789,-5.64445 1.2789,-5.64445 0.49121,-2.11666 0.49121,-2.11667 0.59465,-2.998609 0.59465,-2.998611 1.25401,-1.150818 1.25401,-1.150818 2.08689,-0.760916 2.08689,-0.76092 0.17451,-0.454753 0.1745,-0.454752 -2.14874,-7.732123 -2.14875,-7.73213 0.002,-1.013891 0.002,-1.013889 1.19181,-3.175 1.19181,-3.175 2.68703,-6.7989 2.68693,-6.798897 v -0.362371 -0.36237 l 0.50235,-0.97145 0.50236,-0.971452 5.32818,-3.597141 5.32836,-3.597142 h 4.87294 4.87294 l 1.55538,0.474555 1.55537,0.474554 3.98358,2.524057 3.98358,2.524057 h 0.29737 0.29738 l 0.49996,0.79375 0.49997,0.79375 1.16882,2.645834 1.16883,2.645833 1.85462,5.291667 1.85462,5.291666 1.10165,2.822221 1.10165,2.822223 0.002,2.233538 0.002,2.233538 -1.26318,4.116462 -1.26337,4.116462 -0.98528,3.230869 -0.98527,3.230869 3.04221,1.095103 3.04222,1.095105 0.43765,0.278902 0.43764,0.278906 0.71902,2.803453 0.71902,2.803459 2.28847,10.40694 2.28846,10.40695 0.85741,3.60458 0.85741,3.60458 0.68502,0.98153 0.68501,0.98153 1.21526,1.94028 1.21526,1.94028 2.64097,4.05694 2.64098,4.05695 1.48179,2.46944 1.4818,2.46944 3.3572,5.29167 3.3572,5.29167 1.27726,2.11666 1.27727,2.11667 -0.0163,1.5875 -0.0163,1.5875 -0.59318,3.175 -0.59317,3.175 -0.52587,2.46945 -0.52586,2.46944 -0.15541,0.77024 -0.1554,0.77024 -0.67474,0.21415 -0.67473,0.21415 -0.88186,-0.22133 -0.88186,-0.22133 -0.43897,-1.11584 -0.43898,-1.11584 -2.6086,-6.35 -2.6086,-6.35 -0.59848,-1.40199 -0.59849,-1.40199 -2.29305,-2.68886 -2.29306,-2.68886 -3.27655,-4.02304 -3.27655,-4.02303 -1.13317,-1.3867 -1.13317,-1.3867 -1.9554,-2.31747 -1.95539,-2.31747 -1.1877,-1.53294 -1.18769,-1.53294 -0.94772,-2.87678 -0.94771,-2.87678 -1.37384,-5.37986 -1.37383,-5.37986 h -0.21815 -0.21814 l -1.10819,2.80437 -1.10819,2.80437 v 0.30966 0.30966 l -1.08756,3.27175 -1.08756,3.27176 0.59501,2.42801 0.59502,2.42803 2.23568,4.43899 2.23568,4.439 1.46827,4.47428 1.46828,4.47428 2.47855,7.39165 2.47855,7.39163 -0.19826,2.48614 -0.19827,2.48614 -1.28295,6.87917 -1.28296,6.87916 -0.86415,4.93889 -0.86415,4.93889 -1.55644,4.58611 -1.55643,4.58611 -1.72807,4.58611 -1.72808,4.58611 -2.02005,5.84905 -2.02006,5.84904 -2.53794,2.22477 -2.53794,2.22478 -2.99861,2.725 -2.99861,2.72499 -2.82222,2.38583 -2.82222,2.38582 -1.92081,1.63203 -1.92082,1.63203 -1.78335,1.58884 -1.78336,1.58884 -4.11784,3.42478 -4.11784,3.42478 -2.27735,2.13035 -2.27735,2.13035 -1.01314,0.1424 z m -1.8309,-0.89195 2.00447,0.0435 3.81064,-3.39535 3.81064,-3.39535 1.59322,-1.27053 1.59322,-1.27053 3.88056,-3.38219 3.88055,-3.3822 3.52778,-2.97426 3.52778,-2.97425 5.11528,-4.63047 5.11528,-4.63048 0.59798,-0.66953 0.59799,-0.66953 1.79428,-5.10892 1.79428,-5.10891 1.81112,-4.93889 1.81113,-4.93889 0.84817,-2.29305 0.84816,-2.29306 0.85203,-2.64583 0.85202,-2.64583 1.0657,-5.99723 1.06569,-5.99722 1.28515,-7.18988 1.28515,-7.18989 -2.56325,-7.80317 -2.56325,-7.80317 -1.55858,-4.57333 -1.55858,-4.57335 -1.56294,-2.86725 -1.56294,-2.86725 -1.07035,-3.19478 -1.07035,-3.19478 0.008,-1.35907 0.008,-1.35908 1.35898,-4.40972 1.35898,-4.40972 0.77866,-1.9394 0.77867,-1.9394 0.3667,-0.44185 0.36671,-0.44185 h 0.47237 0.47238 l 0.33707,1.32292 0.33707,1.32291 1.61868,6.17361 1.61868,6.17361 1.04876,2.11667 1.04874,2.11667 3.62368,4.29053 3.62368,4.29053 1.76389,2.20603 1.76389,2.20604 1.41111,1.66209 1.41111,1.66208 2.41771,2.90398 2.41772,2.90397 0.98896,2.16654 0.98896,2.16654 1.392,3.35139 1.392,3.35139 1.35194,3.29929 1.35195,3.29928 0.51498,0.19762 0.51497,0.19761 0.40389,-0.55235 0.40389,-0.55235 0.63265,-3.29733 0.63265,-3.29733 0.49994,-2.59537 0.49996,-2.59537 v -0.96712 -0.96712 l -5.02709,-8.00077 -5.02708,-8.00076 -1.078,-1.8423 -1.07799,-1.8423 -3.4125,-5.20663 -3.41249,-5.20663 -0.55105,-0.96698 -0.55105,-0.96698 -0.66673,-1.05833 -0.66672,-1.05834 -1.61377,-7.40833 -1.61378,-7.40833 -0.33641,-1.41111 -0.33641,-1.41111 -1.63995,-7.23195 -1.63994,-7.231946 -0.29337,-0.554117 -0.29336,-0.554117 -1.34435,-0.584724 -1.34435,-0.584726 -2.02848,-0.738587 -2.02847,-0.73859 v -0.799685 -0.79974 l 1.41894,-4.378386 1.41893,-4.378388 0.87413,-3.067699 0.87413,-3.0677 v -1.218981 -1.218978 l -1.58995,-4.113805 -1.58995,-4.113802 -0.74679,-2.359239 -0.74679,-2.35924 -1.43804,-3.527779 -1.43805,-3.527777 -0.72313,-1.37959 -0.72313,-1.379594 -3.52778,-2.242442 -3.52778,-2.242443 -1.76389,-0.863864 -1.76389,-0.863863 -4.95489,-0.07176 -4.9549,-0.07176 -5.18577,3.487417 -5.18577,3.487415 -0.93265,2.481355 -0.93265,2.481352 -3.35419,8.466667 -3.3542,8.466666 0.0383,1.234721 0.0383,1.234723 1.28326,4.409723 1.28326,4.40972 0.84695,3.272989 0.84694,3.272991 v 0.463568 0.463566 l -2.97615,1.326123 -2.97615,1.326121 -0.55665,0.615095 -0.55666,0.615099 -1.54938,7.022221 -1.54939,7.02223 -1.79363,7.40833 -1.79364,7.40834 -0.69103,2.48869 -0.69103,2.4887 -2.61299,3.8613 -2.61297,3.86131 -6.167446,9.70138 -6.16745,9.70139 -1.82077,3.03613 -1.82078,3.03613 v 0.70004 0.70004 l 0.6961,3.31938 0.6961,3.31939 0.65526,2.56844 0.65525,2.56844 0.41505,0.41505 0.41506,0.41506 0.51534,-0.51534 0.51534,-0.51535 1.46727,-3.35009 1.46727,-3.3501 1.53942,-3.84404 1.53941,-3.84405 0.86602,-1.44762 0.86602,-1.44762 2.40041,-2.8638 2.400396,-2.8638 2.46945,-2.9103 2.46945,-2.9103 4.5534,-5.3384 4.55341,-5.3384 0.98588,-2.11666 0.98589,-2.11667 1.7918,-6.87917 1.79181,-6.87916 0.15208,-0.43503 0.15208,-0.43502 0.48983,0.18797 0.48983,0.18796 1.27925,3.42206 1.27924,3.42206 0.89489,3.14276 0.89489,3.14275 0.20552,1.28524 0.20551,1.28523 -0.95677,2.27478 -0.95679,2.27479 -2.2152,4.7625 -2.2152,4.7625 -1.95777,6.35 -1.95777,6.35 -1.63581,5.74528 -1.6358,5.74528 0.19097,1.31028 0.19097,1.31027 1.09117,8.11389 1.09117,8.11389 1.0339,7.58472 1.03389,7.58472 0.21085,2.29306 0.21086,2.29305 -5.72712,8.64306 -5.72711,8.64306 -3.03272,4.57471 -3.03271,4.57471 -1.16083,0.77963 -1.160826,0.77963 -1.485,0.34655 -1.485,0.34655 -5.55208,1.44285 -5.55208,1.44287 h -1.19439 -1.19438 l -2.09803,-1.85209 -2.09803,-1.85208 -3.45391,-2.99861 -3.45392,-2.99861 -1.09173,-0.88195 -1.09174,-0.88194 -3.31037,-2.96684 -3.31036,-2.96685 0.16921,-0.91371 0.16922,-0.91371 2.48803,-6.52639 2.48804,-6.52639 4.29437,-11.28889 4.29438,-11.28889 -0.007,-1.5875 -0.007,-1.5875 -1.40024,-3.70417 -1.40025,-3.70416 -2.17597,-5.64445 -2.17597,-5.64444 -0.8475,-1.85208 -0.84751,-1.85209 h -0.38914 -0.38914 l -0.792,0.85458 -0.792,0.85458 -2.9795,5.40723 -2.97951,5.40722 -0.38131,0.70556 -0.3813,0.70555 -0.88538,1.5875 -0.88538,1.5875 -2.15185,3.88056 -2.15186,3.88056 -0.73061,4.82358 -0.73061,4.82359 v 1.24101 1.24101 l -0.36829,0.22762 -0.36829,0.22761 -0.77824,-0.51881 -0.77824,-0.51882 -3.98701,-3.55156 -3.987017,-3.55156 -1.923479,-0.90995 -1.923481,-0.90994 -3.96725,-1.43483 -3.967284,-1.43482 -4.233333,-1.52762 -4.233333,-1.52763 -2.943547,-1.12089 -2.943547,-1.1209 -0.299636,0.30201 -0.299635,0.30201 0.679732,2.46944 0.679731,2.46945 1.622588,6.17361 1.622589,6.17361 0.659858,2.68762 0.659859,2.68763 0.592012,1.24146 0.592011,1.24146 2.687604,1.57914 2.687604,1.57913 1.940277,1.05206 1.940277,1.05205 4.586112,2.5697 4.58611,2.56971 4.586108,2.5588 4.58612,2.55879 3.14955,1.71678 3.14955,1.71678 2.23793,4.93889 2.23794,4.93889 0.69908,1.86839 0.69908,1.86839 0.7006,1.37329 0.70059,1.37328 4.50173,3.43985 4.50172,3.43985 4.93889,3.75243 4.93889,3.75242 1.41293,0.93285 1.41293,0.93285 8.46485,0.39452 8.464846,0.39452 5.29167,0.45415 5.29167,0.45416 z m -4.20933,-2.47778 -3.08681,-0.0519 -3.88056,-0.25791 -3.880556,-0.25792 -5.55625,-0.25651 -5.55625,-0.25651 v -0.65893 -0.65893 l 2.73403,-2.91995 2.73403,-2.91996 3.833,-4.32147 3.833016,-4.32148 h 0.63686 0.63687 l 5.31972,7.9883 5.3197,7.98829 v 0.47837 0.47838 z m 0.86621,-0.70767 1.1308,0.054 -4.51221,-6.79097 -4.51222,-6.79097 -0.42336,-0.79375 -0.42336,-0.79375 h -0.29906 -0.29906 l -2.017986,2.38125 -2.01799,2.38125 -4.07816,4.35329 -4.07816,4.35329 0.49859,0.31561 0.4986,0.31561 2.29305,0.0368 2.29306,0.0368 7.408326,0.44372 7.40834,0.44372 z m 4.99443,-0.29878 h -0.33808 l -0.82259,-0.88758 -0.82258,-0.88758 -2.9916,-4.33538 -2.9916,-4.33539 -1.9898,-3.13629 -1.98982,-3.13629 v -0.45302 -0.45301 l 1.32292,-0.67394 1.32292,-0.67393 4.23334,-1.65062 4.23333,-1.65063 3.70417,-1.52709 3.70416,-1.52709 4.7277,-1.79997 4.72768,-1.79996 h 0.47579 0.47578 v 0.62833 0.62832 l -3.81407,6.33904 -3.81406,6.33903 -2.59621,4.40972 -2.5962,4.40972 -1.91155,3.08681 -1.91155,3.0868 z m 0.22862,-1.67055 0.43026,-0.6225 2.02195,-3.52778 2.02195,-3.52778 1.82307,-2.99861 1.82306,-2.99861 0.41444,-0.70555 0.41444,-0.70556 3.10821,-5.10173 3.10822,-5.10174 0.27558,-0.44284 0.27558,-0.44285 -2.39225,0.89593 -2.39225,0.89592 -5.46805,2.23284 -5.46806,2.23285 -5.55625,2.19712 -5.55626,2.19713 v 0.24074 0.24074 l 2.11668,3.1019 2.11667,3.10189 v 0.16041 0.16041 l 1.14652,1.53954 1.14653,1.53956 2.07986,3.03053 2.07985,3.03054 z m -33.043206,-0.0933 h -0.49251 l -7.22295,-5.45484 -7.22296,-5.45484 -0.11406,-0.54238 -0.11407,-0.54239 1.1724,0.006 1.17239,0.006 3.35139,0.33609 3.35139,0.33609 2.74508,0.42871 2.74507,0.42871 0.30491,0.37562 0.30492,0.37561 0.25575,4.8507 0.25576,4.85069 h -0.49251 z m -0.39485,-1.19681 0.11887,-0.11888 -0.37725,-4.00046 -0.37726,-4.00045 -0.0947,-0.0947 -0.0947,-0.0947 -2.44956,-0.50222 -2.44957,-0.50221 -3.175,-0.23526 -3.175,-0.23525 -0.70555,-0.20491 -0.70556,-0.20492 5.99722,4.50749 5.99723,4.50749 0.68595,0.64891 0.68596,0.6489 z m 3.56809,0.96099 -0.65211,0.17053 -0.1653,-0.76111 -0.16531,-0.7611 -0.0978,-4.55159 -0.0978,-4.55158 6.12628,-1.56353 6.12627,-1.56353 0.35868,0.35868 0.35868,0.35867 -0.66412,0.86325 -0.66412,0.86324 -4.90562,5.48377 -4.90562,5.48377 z m 1.75461,-2.93918 1.65202,-1.94028 3.68387,-4.0172 3.68387,-4.01719 -0.74052,0.39632 -0.74053,0.39632 -4.43995,1.07349 -4.43995,1.07349 -0.47273,0.1814 -0.47272,0.18141 0.14278,3.77709 0.14278,3.77709 0.17453,0.52917 0.17453,0.52916 z m 35.827396,-0.52581 -1.8091,1.5525 -0.21937,-0.21937 -0.21936,-0.21936 v -0.66462 -0.66463 l 3.05347,-5.18561 3.05347,-5.1856 3.0747,-5.12553 3.07469,-5.12552 0.93334,-1.84184 0.93333,-1.84184 1.14058,-0.002 1.14058,-0.002 5.46806,0.39393 5.46806,0.39393 0.51656,0.49053 0.51657,0.49054 -0.51657,0.46383 -0.51656,0.46384 -3.88056,3.53475 -3.88056,3.53493 -7.76111,6.60375 -7.76111,6.60375 -1.80911,1.5525 z m -1.01311,-0.17975 h 0.17639 v -0.17639 -0.17639 h -0.17639 -0.17639 v 0.17639 0.17639 z m 1.18282,-1.38333 0.66173,-0.35415 3.13467,-2.75304 3.13467,-2.75304 1.09982,-0.87613 1.09983,-0.87614 4.72101,-4.10235 4.72101,-4.10234 2.89812,-2.67495 2.89812,-2.67495 -1.13423,-0.19308 -1.13424,-0.19308 -4.54069,-0.26919 -4.54069,-0.26917 -0.42935,0.36039 -0.42934,0.36038 -0.81055,1.41111 -0.81054,1.41112 -0.60376,1.05833 -0.60375,1.05833 -2.91873,4.93889 -2.91873,4.93889 -2.07806,3.45416 -2.07805,3.45416 z m -45.544626,-7.48817 -0.79375,-0.0521 -5.82084,-0.75515 -5.82083,-0.75514 -0.21218,-4.39628 -0.21219,-4.39627 0.16809,-0.97014 0.16809,-0.97014 h 0.48506 0.48508 l 0.004,0.26459 0.004,0.26458 6.14988,5.29167 6.14987,5.29166 0.0198,0.61736 0.0198,0.61737 -0.79375,-0.0521 z m -1.5875,-1.05484 0.61736,0.0486 v -0.14371 -0.1437 l -4.8556,-4.17782 -4.85559,-4.17782 -0.61246,-0.48417 -0.61246,-0.48417 v 4.11121 4.11122 l 0.44097,0.12962 0.44097,0.12962 4.40972,0.5163 4.40973,0.5163 z m -13.3998,-3.83199 h -0.69449 l -1.85519,-3.96875 -1.85519,-3.96875 -0.18405,-1.32292 -0.18404,-1.32292 0.8402,0.008 0.8402,0.008 1.45396,0.66026 1.45397,0.66026 0.20964,1.88963 0.20964,1.88963 0.22992,2.73403 0.22993,2.73403 h -0.6945 z m -0.51953,-2.27905 0.15888,-0.15888 -0.25183,-3.02318 -0.25184,-3.02317 -1.25648,-0.52499 -1.25649,-0.52499 -0.15844,0.15844 -0.15844,0.15844 1.50788,3.5486 1.50788,3.5486 z m 43.111946,1.22071 h -0.37518 l -0.18705,-0.48744 -0.18705,-0.48743 7.13043,-10.88965 7.13043,-10.88964 0.53071,-0.61736 0.5307,-0.61737 h 0.46797 0.46797 l 6.00374,6.05226 6.00374,6.05225 v 0.61228 0.61228 l -0.97014,0.24181 -0.97014,0.2418 -3.70416,1.42777 -3.70417,1.42777 -0.70555,0.30035 -0.70556,0.30035 -3.175,1.27687 -3.175,1.27688 -3.70417,1.51973 -3.70416,1.51973 -1.31159,0.56338 -1.31158,0.56338 z m 0.94593,-1.41111 h 0.21255 l 3.0366,-1.26497 3.03661,-1.26497 0.70556,-0.27533 0.70555,-0.27533 0.88195,-0.38593 0.88194,-0.38593 6.17361,-2.44514 6.17361,-2.44513 1.76389,-0.63012 1.76389,-0.63011 0.0944,-0.0612 0.0944,-0.0612 -5.73456,-5.72953 -5.73455,-5.72954 -0.46047,0.64988 -0.46047,0.64988 -4.65912,7.07402 -4.65911,7.07403 -2.01443,3.06833 -2.01443,3.06834 z m 44.07798,-8.87366 -0.39778,-0.0542 -6.52174,-0.56314 -6.52175,-0.56314 -0.1064,-0.55346 -0.10639,-0.55346 2.09727,-6.14932 2.09727,-6.14932 1.81698,-4.93889 1.81698,-4.93889 2.80845,-7.9375 2.80845,-7.9375 0.33885,-0.79375 0.33885,-0.79375 0.62493,0.002 0.62492,0.002 0.66903,1.14429 0.66904,1.1443 1.23621,2.11667 1.23621,2.11666 1.29961,2.29306 1.29961,2.29305 1.16385,1.84315 1.16385,1.84315 -1.59327,4.50685 -1.59327,4.50685 -3.09593,8.64306 -3.09592,8.64305 -0.34007,0.44098 -0.34006,0.44097 -0.39778,-0.0542 z m -1.41619,-1.05598 1.45103,0.0519 1.15444,-3.26319 1.15444,-3.26319 1.39993,-3.70417 1.39993,-3.70417 1.92867,-5.46805 1.92866,-5.46806 0.1879,-0.59977 0.1879,-0.59978 -0.70193,-0.98772 -0.70193,-0.98773 -2.5466,-4.40972 -2.54659,-4.40972 -0.89475,-1.55888 -0.89475,-1.55887 -1.23054,3.49915 -1.23055,3.49915 -4.31375,11.99445 -4.31376,11.99444 -1.33491,3.80134 -1.3349,3.80133 0.22775,0.22775 0.22775,0.22775 4.67277,0.41697 4.67276,0.41697 z m -14.29053,-1.78312 -0.41543,0.13848 -6.16073,-6.09741 -6.16073,-6.09741 v -0.7489 -0.7489 l 8.55486,-8.13036 8.55486,-8.13036 4.05695,-3.75038 4.05694,-3.75038 0.44097,-0.004 0.44098,-0.004 v 0.52111 0.52111 l -0.91031,2.38931 -0.9103,2.3893 -1.17321,3.35138 -1.1732,3.35139 -0.9402,2.64584 -0.9402,2.64583 -0.30891,0.70555 -0.30892,0.70556 -3.14399,8.97924 -3.144,8.97925 z m -0.337,-1.34002 h 0.23707 l 1.05649,-3.0868 1.05649,-3.08681 2.10793,-5.99722 2.10793,-5.99722 1.66292,-4.58611 1.66293,-4.58611 0.45913,-1.41111 0.45912,-1.41112 0.75307,-1.89252 0.75306,-1.89252 -1.15732,0.97152 -1.15732,0.97152 -4.38897,4.096 -4.38896,4.096 -6.45614,6.17254 -6.45614,6.17253 5.72582,5.73372 5.72582,5.73371 z m 12.47094,-34.21944 h 0.17639 v -0.17639 -0.17639 h -0.17639 -0.17638 v 0.17639 0.17639 z m -94.572366,34.11116 -0.3366,0.1122 -2.46357,-1.18097 -2.46357,-1.18097 -8.660999,-4.77554 -8.66099,-4.77555 -2.098731,-1.16489 -2.098728,-1.1649 -1.473645,-1.03581 -1.473644,-1.03581 -0.379265,-0.92877 -0.379264,-0.92876 -1.763063,-7.00425 -1.763064,-7.00424 v -1.04731 -1.04732 l 0.532676,0.11406 0.532676,0.11406 16.768051,16.5367 16.76805,16.53671 -0.12486,0.37458 -0.12486,0.37458 z m -1.38319,-1.30283 h 0.17639 v -0.17639 -0.17638 h -0.17639 -0.17639 v 0.17638 0.17639 z m -0.88194,-0.72213 0.17639,0.007 -10.230561,-10.1166 -10.230553,-10.11659 -5.356343,-5.28501 -5.356342,-5.28501 0.302721,1.20697 0.30272,1.20697 1.414992,5.5705 1.414991,5.57049 0.390377,1.18286 0.390377,1.18285 1.307976,0.88362 1.307974,0.88362 6.879167,3.78518 6.879166,3.78518 1.940278,1.0925 1.94028,1.09249 3.175,1.67276 3.175,1.67275 0.17639,0.007 z m 6.4202,1.78047 h -0.63536 l -17.411908,-17.23958 -17.41191,-17.23959 0.236274,-0.61572 0.236275,-0.61572 0.613074,0.19239 0.613074,0.19238 5.468057,1.98154 5.468053,1.98153 2.479056,0.80217 2.479056,0.80217 0.893824,0.8563 0.893825,0.85629 3.50629,2.8924 3.50628,2.89239 1.48083,1.51733 1.48083,1.51733 1.91966,5.46805 1.91965,5.46806 1.45021,3.79568 1.45021,3.79569 v 0.34945 0.34946 z m -0.8691,-1.76618 0.0831,0.002 -0.74236,-1.85208 -0.74236,-1.85208 -2.41038,-6.70278 -2.41039,-6.70278 -1.88033,-1.76389 -1.88033,-1.76389 -3.86942,-3.25135 -3.869417,-3.25136 -2.293054,-0.74283 -2.293056,-0.74283 -0.705557,-0.3211 -0.705554,-0.3211 -4.537458,-1.5653 -4.537456,-1.56531 16.355512,16.19705 16.35551,16.19704 z m -33.244158,-32.4533 h 0.176388 v -0.17639 -0.17639 h -0.176388 -0.176389 v 0.17639 0.17639 z m 36.729698,32.80834 h -0.47491 l -1.84226,-5.02709 -1.84227,-5.02708 -1.24894,-3.70417 -1.24893,-3.70416 0.6082,-5.64445 0.60821,-5.64444 0.53712,-2.46945 0.53712,-2.46944 3.36781,-5.99722 3.36782,-5.99723 1.36805,-2.54627 1.36805,-2.54628 0.26613,-0.16447 0.26612,-0.16448 0.38644,0.24131 0.38644,0.2413 -0.65103,5.11528 -0.65104,5.11528 -1.2554,11.46528 -1.2554,11.46528 -0.90376,7.9375 -0.90375,7.9375 -0.15745,0.79375 -0.15746,0.79375 z m 0.20029,-4.23334 0.24109,-2.29305 1.61349,-14.42243 1.61348,-14.42243 0.70306,-5.74776 0.70306,-5.74778 v -0.62456 -0.62457 l -0.98791,1.56838 -0.98791,1.56837 -1.71637,3.175 -1.71637,3.175 -1.50104,2.48681 -1.50105,2.48681 -0.53569,2.0993 -0.5357,2.0993 -0.56493,4.40313 -0.56493,4.40312 -0.0151,1.77049 -0.0151,1.77048 2.11803,5.99723 2.11803,5.99722 0.64534,1.5875 0.64534,1.5875 0.2411,-2.29306 z m 5.05057,-44.45 h 0.17639 v -0.17639 -0.17639 h -0.17639 -0.17639 v 0.17639 0.17639 z m -1.76961,46.91945 h -0.48181 l -0.14723,-0.26459 -0.14723,-0.26458 1.15559,-10.40694 1.1556,-10.40695 1.45159,-12.87639 1.45159,-12.87639 0.20432,-1.14652 0.20432,-1.14653 h 0.63541 0.63542 l 1.1273,2.91041 1.12731,2.91042 1.68851,4.40972 1.68853,4.40973 0.22665,1.41111 0.22665,1.41111 -0.51846,1.5875 -0.51845,1.5875 -1.07941,2.99861 -1.07942,2.99861 -0.32999,0.70556 -0.33,0.70555 -0.86523,2.29306 -0.86524,2.29305 -1.13859,3.175 -1.1386,3.175 -1.40122,3.52778 -1.40121,3.52778 -0.52745,1.67569 -0.52744,1.6757 z m 0.3585,-2.82223 h 0.17639 v -0.17638 -0.17639 h -0.17639 -0.17639 v 0.17639 0.17638 z m 1.1642,-3.175 1.0237,-2.29305 1.43865,-4.05695 1.43864,-4.05694 2.8791,-7.58472 2.8791,-7.58472 -0.16048,-1.41112 -0.16049,-1.41111 -2.67916,-6.87916 -2.67915,-6.87917 -0.0214,0.52917 -0.0214,0.52916 -0.34502,2.3859 -0.34501,2.3859 -1.06646,9.43216 -1.06646,9.43215 -0.87976,8.11389 -0.87977,8.11389 -0.18916,1.76389 -0.18916,1.76389 z m 59.425386,-7.06095 -0.44097,0.005 v -0.3339 -0.33389 l 1.92865,-4.86958 1.92865,-4.86958 2.88884,-7.76111 2.88885,-7.76111 0.95237,-2.46944 0.95236,-2.46945 2.8961,-7.76111 2.8961,-7.76111 0.14241,-0.44097 0.14241,-0.44097 h 0.32066 0.32065 l 0.38185,0.4601 0.38184,0.46009 1.03495,2.97949 1.03495,2.97948 1.76254,4.93889 1.76255,4.93889 1.10878,2.7724 1.10879,2.7724 -0.21597,0.57899 -0.21596,0.57899 -2.00049,1.73158 -2.0005,1.73158 -5.6709,5.50036 -5.67091,5.50037 -4.69008,4.40972 -4.69009,4.40972 -0.39873,0.25918 -0.39873,0.25918 -0.44097,0.005 z m 0.79375,-1.05293 h 0.17639 v -0.17639 -0.17639 H 124.39 124.21361 v 0.17639 0.17639 z m 2.87581,-3.175 2.78521,-2.64584 7.40004,-7.06579 7.40005,-7.0658 2.03462,-1.93004 2.03463,-1.93003 -0.75527,-1.94028 -0.75526,-1.94028 -3.1154,-8.64306 -3.1154,-8.64305 -0.0161,0.50447 -0.0161,0.50447 -2.62115,6.90386 -2.62115,6.90387 -3.03464,7.9375 -3.03464,7.9375 -1.96192,5.45859 -1.96194,5.45858 -0.71545,1.42058 -0.71545,1.42058 2.78521,-2.64583 z m -6.07614,2.74958 -0.71953,0.10375 -0.79296,-5.21903 -0.79295,-5.21903 -1.20594,-8.99583 -1.20594,-8.99583 -0.18803,-1.30758 -0.18803,-1.30757 0.79547,-0.76024 0.79546,-0.76023 10.03315,-6.66344 10.03316,-6.66344 h 0.46198 0.46199 v 0.66355 0.66356 l -0.89209,2.42325 -0.89209,2.42325 -0.33788,0.70555 -0.33789,0.70556 -1.98935,5.29167 -1.98936,5.29166 -0.68516,1.76389 -0.68516,1.76389 -1.05806,2.82222 -1.05805,2.82222 -0.32874,1.05834 -0.32873,1.05833 -1.36703,3.35139 -1.36703,3.35139 -1.72584,4.7625 -1.72584,4.7625 z m 0.0192,-1.33847 h 0.0845 l 1.41919,-3.79236 1.41919,-3.79237 1.32226,-3.52777 1.32226,-3.52778 2.21007,-5.82083 2.21006,-5.82084 2.28177,-5.99722 2.28177,-5.99722 0.93883,-2.41371 0.93883,-2.41371 -0.28844,0.12066 -0.28845,0.12065 -1.9256,1.34493 -1.9256,1.34492 -7.40834,4.87299 -7.40833,4.87299 -0.64681,0.72156 -0.6468,0.72157 0.38622,3.11468 0.38621,3.11469 1.20907,8.64306 1.20907,8.64305 0.41732,2.73403 0.41732,2.73403 z m 40.17876,-6.70278 h -0.44347 l -0.15803,-0.26458 -0.15803,-0.26459 -2.7935,-4.58611 -2.79349,-4.58611 -1.19244,-2.17715 -1.19243,-2.17715 0.48501,-0.58439 0.48501,-0.5844 1.78605,-0.89999 1.78604,-0.89999 3.59739,-2.0711 3.59738,-2.07111 h 0.54776 0.54775 v 0.28292 0.28292 l -1.18879,6.15528 -1.1888,6.15527 -0.63997,4.14514 -0.63997,4.14514 z m -0.28333,-1.84807 0.10343,-0.10344 0.74083,-4.50021 0.74083,-4.50021 0.8722,-4.28248 0.87219,-4.28248 -0.14766,-0.14765 -0.14765,-0.14765 -3.64645,2.09864 -3.64644,2.09865 -1.52188,0.77058 -1.52188,0.77058 0.95545,1.65701 0.95545,1.65701 2.64407,4.50754 2.64407,4.50754 z m -9.19785,-14.37971 h -0.55106 l -0.15425,-0.44097 -0.15426,-0.44097 -1.42834,-4.05695 -1.42834,-4.05694 -0.48153,-1.05834 -0.48153,-1.05833 -1.83295,-5.07004 -1.83294,-5.07005 0.39283,-0.39284 0.39284,-0.39284 0.84699,0.524 0.84698,0.52399 5.55512,3.70417 5.55511,3.70417 3.72779,2.46944 3.72779,2.46945 v 0.87017 0.87017 l -3.52777,1.98671 -3.52778,1.98671 -2.54682,1.46465 -2.54682,1.46464 z m 0.35091,-1.05833 h 0.16481 l 1.85893,-1.1781 1.85894,-1.17809 2.11666,-1.17287 2.11667,-1.17287 1.67569,-0.85559 1.6757,-0.85559 v -0.32864 -0.32863 l -2.90813,-1.84468 -2.90813,-1.84466 -3.35368,-2.19207 -3.35367,-2.19207 -1.05834,-0.72411 -1.05833,-0.72411 -2.22469,-1.59561 -2.2247,-1.59561 0.36233,0.67701 0.36232,0.67702 0.87159,2.60005 0.8716,2.60005 1.95953,5.11528 1.95953,5.11528 0.001,0.2215 0.001,0.2215 0.5339,1.27781 0.5339,1.2778 h 0.16481 z m 40.56712,-5.99722 h -0.53362 l -0.91294,-2.02848 -0.91293,-2.02847 -1.19929,-2.76529 -1.19927,-2.76529 v -0.67429 -0.6743 h 0.63683 0.63684 l 2.44997,0.82421 2.44997,0.82421 0.11198,0.94333 0.11197,0.94333 -0.55295,3.47803 -0.55295,3.47803 v 0.22249 0.22249 z m -0.13515,-2.32078 0.21319,-0.12677 0.22331,-2.13658 0.22332,-2.13657 0.20503,-0.81691 0.20503,-0.8169 -2.08886,-0.76163 -2.08886,-0.76164 h -0.2173 -0.21729 l 0.2025,0.61736 0.20249,0.61736 0.86992,1.94028 0.86993,1.94028 0.5922,1.28424 0.59221,1.28425 z m -104.319106,1.968 h -0.47925 l -0.17987,-0.79375 -0.17988,-0.79375 -0.35335,-2.29306 -0.35334,-2.29305 -0.003,-1.29757 -0.003,-1.29757 2.02848,-0.7634 2.02847,-0.76339 1.20165,-0.199 1.20164,-0.199 -0.23225,1.16128 -0.23226,1.16128 -1.64872,3.74452 -1.64871,3.74451 -0.33401,0.44098 -0.33401,0.44097 h -0.47925 z m 0.28354,-1.76389 h 0.2821 v -0.32413 -0.32413 l 1.5875,-3.35191 1.5875,-3.35191 v -0.22829 -0.22829 l -0.79375,0.2206 -0.79375,0.2206 -1.41111,0.57806 -1.41111,0.57805 -0.10445,0.0645 -0.10445,0.0645 0.43971,3.04115 0.4397,3.04115 z m 28.966126,-1.41691 -0.42016,0.006 -0.17866,-0.28908 -0.17866,-0.28908 1.54255,-4.91439 1.54255,-4.9144 1.69374,-5.42157 1.69373,-5.42157 0.46906,-0.17999 0.46905,-0.17999 5.53653,2.65393 5.53653,2.65394 1.67569,0.78161 1.6757,0.78162 v 0.65857 0.65857 l -0.97014,0.59501 -0.97014,0.595 -2.99861,1.93609 -2.99861,1.93609 -5.01883,3.38607 -5.01884,3.38607 -1.33116,0.78794 -1.33117,0.78795 z m 0.73144,-1.31027 0.39426,-0.24165 7.54194,-5.06459 7.54194,-5.06458 1.91844,-1.0827 1.91844,-1.08271 -0.28815,-0.25804 -0.28816,-0.25804 -6.17361,-2.88782 -6.17362,-2.88782 -0.31322,-0.0704 -0.31324,-0.0703 -1.3417,3.88055 -1.34169,3.88056 -0.94113,3.52777 -0.94113,3.52778 -0.79682,2.19682 -0.79682,2.19682 z m 45.80635,0.96329 h -0.29479 l -1.56837,-1.04832 -1.56837,-1.04833 -0.88195,-0.60553 -0.88194,-0.60553 -5.11528,-3.40082 -5.11528,-3.40082 -2.3781,-1.32393 -2.37812,-1.32393 -0.2099,-0.33962 -0.2099,-0.33963 0.47135,-0.56916 0.47134,-0.56916 6.48599,-3.11956 6.48599,-3.11955 h 0.47061 0.4706 l 3.21565,9.89826 3.21565,9.89827 -0.1952,0.50868 -0.1952,0.50868 z m -0.54337,-1.53584 0.0827,-0.0827 -0.67151,-1.92477 -0.67151,-1.92477 -2.19738,-6.87916 -2.19738,-6.87917 -0.21414,-0.25705 -0.21413,-0.25705 -2.45934,1.25291 -2.45934,1.25291 -3.52778,1.59254 -3.52778,1.59254 -0.28958,0.27647 -0.28959,0.27646 2.93542,1.78067 2.93542,1.78066 6.34163,4.24109 6.34162,4.24108 z m -71.800106,-7.14537 -2.17442,0.44809 -0.17557,-0.17557 -0.17557,-0.17557 v -0.64339 -0.64339 l 2.56365,-3.97212 2.56365,-3.97212 2.81621,-4.49703 2.816206,-4.49703 0.61736,-0.001 0.61736,-10e-4 v 0.55125 0.55126 l -3.017016,7.65082 -3.01703,7.65083 -0.6302,0.63882 -0.6302,0.63882 -2.17443,0.4481 z m -0.10658,-0.93339 1.51634,-0.20339 0.67619,-0.61194 0.6762,-0.61195 0.3125,-1.09364 0.31251,-1.09365 1.98253,-4.87823 1.98253,-4.87823 v -0.20398 -0.20399 l -1.35737,2.08361 -1.35737,2.0836 -2.45716,3.88056 -2.45717,3.88055 -0.67304,1.02703 -0.67303,1.02704 z m 100.162236,1.4689 -0.45205,-0.0318 -1.23472,-0.3352 -1.23472,-0.33522 -0.93641,-0.36735 -0.93641,-0.36736 -0.73572,-1.47048 -0.73572,-1.47047 -2.82578,-7.16594 -2.82579,-7.16594 v -0.33059 -0.33059 l 0.61736,0.005 0.61736,0.005 2.45165,3.96415 2.45166,3.96414 3.30767,5.2323 3.30767,5.23229 -0.19201,0.50034 -0.192,0.50035 -0.45204,-0.0318 z m -0.89302,-1.05437 0.26459,0.0279 v -0.141 -0.14101 l -2.10913,-3.29858 -2.10914,-3.29858 -2.16806,-3.61597 -2.16805,-3.61597 h -0.1416 -0.14159 l 0.4953,0.97014 0.4953,0.97013 1.46343,3.99259 1.46344,3.99258 0.72584,1.54416 0.72584,1.54417 1.46963,0.52082 1.46962,0.52082 z m -8.73125,-14.43604 h 0.17639 v -0.17639 -0.17639 h -0.17639 -0.17639 v 0.17639 0.17639 z m -0.35278,-0.70556 h 0.17639 v -0.17638 -0.17639 h -0.17639 -0.17638 v 0.17639 0.17638 z m -0.35277,-0.70555 h 0.17639 v -0.17639 -0.17639 h -0.17639 -0.17639 v 0.17639 0.17639 z m -81.32809,8.46666 h -0.222386 l -0.19487,-0.19487 -0.19487,-0.19487 1.412536,-3.59749 1.41253,-3.59749 2.36182,-6.52585 2.36183,-6.52585 0.50686,-0.093 0.50686,-0.093 2.73403,2.139 2.73403,2.13899 v 0.57194 0.57193 l -1.69975,1.96765 -1.69974,1.96765 -3.64671,4.40972 -3.64672,4.40972 -1.25153,1.32292 -1.25153,1.32291 z m 1.59169,-2.8724 0.16778,-0.16778 2.74264,-3.37378 2.74264,-3.37379 2.55764,-2.99866 2.55764,-2.99867 v -0.16474 -0.16473 l -2.11714,-1.64411 -2.11714,-1.64411 h -0.30486 -0.30487 l -1.50767,4.3208 -1.50768,4.32081 -1.53838,3.82783 -1.53838,3.82784 v 0.20043 0.20044 z m 42.80375,2.86027 -0.59655,0.0122 -0.18839,-0.30483 -0.1884,-0.30483 2.40665,-4.19309 2.40665,-4.19309 1.3769,-2.16558 1.3769,-2.16558 0.60095,-1.09761 0.60095,-1.09761 h 0.37676 0.37674 l 0.39346,0.97014 0.39345,0.97013 1.5937,3.42604 1.5937,3.42604 -0.48323,0.58225 -0.48323,0.58226 -1.95246,0.98703 -1.95246,0.98703 -3.52778,1.78352 -3.52777,1.78351 -0.59654,0.0121 z m 0.87612,-1.39898 h 0.11754 l 1.9181,-0.89058 1.91811,-0.89058 0.52917,-0.33575 0.52916,-0.33575 1.94028,-0.99494 1.94028,-0.99494 0.79281,-0.43648 0.79282,-0.43646 -1.00892,-2.01657 -1.00892,-2.01656 -0.44387,-1.41111 -0.44388,-1.41111 -0.31016,-0.33514 -0.31016,-0.33514 v 0.35514 0.35514 l -2.85394,4.7425 -2.85395,4.7425 -0.681,1.32292 -0.68101,1.32291 z m -8.3261,1.02757 -0.77293,-0.0308 -5.90903,-2.98426 -5.90902,-2.98425 v -0.52156 -0.52156 l 1.17567,-2.37244 1.17567,-2.37245 0.80558,-2.02847 0.80558,-2.02847 h 0.43841 0.43841 l 1.97456,3.47376 1.97454,3.47375 2.47162,4.16623 2.47162,4.16623 -0.18387,0.29752 -0.18388,0.29751 -0.77293,-0.0308 z m 0.0129,-0.72725 0.0803,0.0525 -1.87386,-2.91042 -1.87387,-2.91041 -2.23473,-3.99667 -2.23474,-3.99667 -0.77689,2.06659 -0.7769,2.06659 -0.92545,1.82629 -0.92545,1.82629 3.08485,1.58821 3.08484,1.58822 2.64583,1.37352 2.64584,1.37353 z m 4.2018,0.75802 h -0.46854 l -0.53477,-0.61736 -0.53478,-0.61737 -2.92803,-4.93888 -2.92803,-4.93889 -1.90507,-3.15034 -1.90506,-3.15034 -0.19767,-0.98835 -0.19767,-0.98834 3.39108,-5.06852 3.39107,-5.06852 1.44421,-1.64071 1.44421,-1.64071 h 1.01176 1.01175 l 0.82978,0.37806 0.82977,0.37807 2.97297,4.47263 2.97297,4.47262 1.50552,2.09906 1.50552,2.09906 v 0.44187 0.44187 l -4.2527,7.29862 -4.25271,7.29861 -0.86852,1.71393 -0.86851,1.71393 z m -0.20091,-1.41265 0.20059,0.001 1.36011,-2.55764 1.36011,-2.55764 1.92974,-3.175 1.92973,-3.175 0.6949,-1.23472 0.69489,-1.23473 0.87139,-1.49266 0.87138,-1.49268 -3.44309,-5.2101 -3.4431,-5.21011 -1.19627,-1.49931 -1.19627,-1.4993 h -1.00186 -1.00187 l -1.39177,1.67569 -1.39177,1.6757 -3.05081,4.52526 -3.05079,4.52526 v 0.52719 0.5272 l 0.97013,1.64314 0.97014,1.64314 0.35278,0.63852 0.35278,0.63851 3.70417,6.15811 3.70416,6.1581 0.2006,0.001 z m 39.84093,1.05987 h -0.30989 l -1.59601,-1.85208 -1.59601,-1.85209 -4.59967,-5.57252 -4.59967,-5.57252 v -0.48618 -0.48617 l 2.38125,-1.97868 2.38125,-1.97869 0.70418,0.0999 0.70418,0.0999 0.66407,1.41111 0.66408,1.41112 1.52699,4.23333 1.52699,4.23333 1.41809,3.83931 1.41809,3.8393 -0.18901,0.30584 -0.18902,0.30583 z m -1.19297,-2.57124 0.12382,-0.12382 -2.29354,-6.149 -2.29353,-6.149 -0.52728,-1.41111 -0.52727,-1.41111 -0.32174,-0.50522 -0.32173,-0.50521 -1.97883,1.52665 -1.97884,1.52666 -0.17064,0.2761 -0.17064,0.27611 4.61213,5.5377 4.61212,5.53771 0.55608,0.84868 0.55607,0.84868 z m -65.23111,-14.72286 -0.42856,-0.008 -2.73403,-2.17589 -2.73402,-2.17589 v -0.70724 -0.70723 l 0.83367,-0.90124 0.83368,-0.90125 2.95869,-4.06911 2.95868,-4.0691 1.5875,-2.35792 1.5875,-2.35792 0.61736,-0.0112 0.61736,-0.0112 v 0.67432 0.67431 l -2.47925,8.8922 -2.47925,8.89219 -0.35538,0.66405 -0.35539,0.66404 -0.42856,-0.008 z m -0.0156,-1.05034 h 0.0965 l 0.56233,-2.02848 0.56232,-2.02847 0.29881,-0.88194 0.29882,-0.88195 1.12206,-4.23333 1.12206,-4.23333 0.50788,-1.54633 0.50788,-1.54632 -0.10406,-0.10406 -0.10405,-0.10405 -1.46876,2.19708 -1.46876,2.19708 -2.84812,3.86302 -2.84812,3.86302 -0.6559,0.76734 -0.6559,0.76732 2.48927,1.9667 2.48928,1.9667 z m 52.64115,1.05833 h -0.34985 l -0.51411,-1.23044 -0.51411,-1.23043 -1.61291,-6.08971 -1.61292,-6.0897 -0.67831,-2.46944 -0.67831,-2.46945 10e-4,-0.61736 0.001,-0.61736 h 0.51353 0.51352 l 5.17617,7.67292 5.17617,7.67291 0.15895,0.56636 0.15895,0.56636 -2.69457,2.16767 -2.69457,2.16767 h -0.34985 z m 2.34673,-2.88699 2.24746,-1.80101 -0.42554,-0.75008 -0.42556,-0.75009 -3.9739,-5.90175 -3.97391,-5.90175 h -0.12222 -0.12222 l 0.34021,1.49931 0.34022,1.4993 0.51071,1.94028 0.51072,1.94028 0.65059,2.46944 0.65059,2.46945 0.77269,2.54382 0.77268,2.54381 z m -16.72093,-0.64079 h -0.31715 l -0.37522,-0.45211 -0.37522,-0.45212 -1.73921,-2.63469 -1.73921,-2.63469 -0.75099,-0.779 -0.75098,-0.779 v -0.7203 -0.72031 h 0.55098 0.55097 l 3.24139,0.91918 3.24138,0.91918 0.48432,0.45969 0.48432,0.45968 -0.80127,2.41349 -0.80127,2.4135 -0.29284,0.79375 -0.29286,0.79375 z m -0.12047,-1.57659 0.11432,-0.11432 0.5301,-1.88857 0.5301,-1.88857 0.065,-0.48505 0.065,-0.48505 -2.93423,-0.80894 -2.93424,-0.80893 0.53801,0.76482 0.53801,0.76481 1.68686,2.53206 1.68685,2.53205 z m -23.641,1.21186 -0.60376,0.012 -0.38363,-1.4993 -0.38362,-1.49931 -0.33553,-1.02278 -0.33553,-1.02279 v -0.8019 -0.80191 l 3.57377,-1.11028 3.57378,-1.11029 0.37298,0.37298 0.37298,0.37298 -1.1202,1.50366 -1.12021,1.50366 -1.50363,2.54569 -1.50364,2.54568 -0.60376,0.012 z m 0.12606,-1.83606 0.25226,-0.0923 1.78129,-2.73403 1.7813,-2.73403 h -0.23243 -0.23244 l -2.35515,0.75853 -2.35516,0.75853 0.55403,2.06776 0.55403,2.06776 z m -18.62816,-5.2879 -0.40865,0.1176 -0.2238,-0.36212 -0.2238,-0.36211 0.71523,-2.74331 0.71524,-2.74331 1.97075,-8.46667 1.97075,-8.466667 0.17509,-0.617363 0.1751,-0.61736 h 0.49298 0.49298 l 0.41377,0.79375 0.41376,0.79375 1.89171,2.53134 1.8917,2.53134 v 1.22935 1.22935 l -5.02708,7.51741 -5.02709,7.51741 z m 0.40864,-1.68353 h 0.17639 v -0.17639 -0.17639 h -0.17639 -0.17639 v 0.17639 0.17639 z m 0.76958,-1.41111 0.68069,-0.88195 1.77433,-2.64583 1.77432,-2.64583 2.17485,-3.42693 2.17484,-3.42692 v -0.40271 -0.40271 l -0.79375,-0.98561 -0.79375,-0.98562 -1.23472,-1.78281 -1.23472,-1.782814 -0.17751,-0.01651 -0.17751,-0.01651 -1.16738,4.850694 -1.16738,4.8507 -1.04574,4.58611 -1.04574,4.58611 -0.21075,0.70555 -0.21076,0.70556 0.68068,-0.88194 z m 59.83793,2.85721 -0.36938,0.36938 -1.24321,-1.5251 -1.2432,-1.5251 -1.00641,-1.65323 -1.00642,-1.65324 -3.08681,-4.90509 -3.0868,-4.90509 v -0.46072 -0.46072 l 1.30084,-1.97679 1.30085,-1.97679 1.35612,-1.852084 1.35611,-1.852083 h 0.44692 0.44691 l 0.61211,3.263197 0.61211,3.26319 1.18352,5.29167 1.18352,5.29167 0.80631,3.44877 0.8063,3.44877 z m -0.92771,-1.91813 0.0603,-0.0602 -1.03785,-4.23178 -1.03786,-4.23177 -1.23655,-5.97702 -1.23656,-5.977025 -0.118,-0.117999 -0.11799,-0.117999 -0.99924,1.310063 -0.99924,1.31008 -1.19076,1.76945 -1.19075,1.76946 0.39485,0.8666 0.39485,0.86661 3.15706,4.91241 3.15706,4.91242 v 0.17872 0.17872 l 0.97014,1.34978 0.97014,1.34979 z m -43.52357,0.47203 h -0.34826 l -0.54423,-0.61736 -0.54423,-0.61736 -1.09795,-2.1948 -1.09795,-2.19481 v -4.41306 -4.41306 l 0.90281,-0.22659 0.9028,-0.22659 3.13439,0.40197 3.1344,0.40198 3.10655,0.88569 3.10655,0.88568 0.97014,0.38612 0.97014,0.38612 -0.004,3.57317 -0.004,3.57318 -1.14817,0.74312 -1.14816,0.74311 -2.46344,0.74607 -2.46344,0.74608 -2.50748,0.71567 -2.50748,0.71567 h -0.34826 z m 0.16368,-1.06438 0.26065,-0.006 2.46944,-0.66673 2.46945,-0.66673 1.94027,-0.59598 1.94028,-0.59599 1.32292,-0.73648 1.32291,-0.73648 v -2.92231 -2.92231 l -2.91041,-0.88217 -2.91042,-0.88217 -2.29305,-0.53506 -2.29306,-0.53507 -2.20486,-0.005 -2.20486,-0.005 v 3.53561 3.5356 l 1.41505,2.81441 1.41505,2.81438 0.26064,-0.006 z m 26.9186,0.68838 -1.25795,-0.0232 -1.94028,-0.51255 -1.94028,-0.51254 -2.56231,-0.75174 -2.56231,-0.75174 -0.91854,-0.91735 -0.91854,-0.91737 0.23654,-3.35139 0.23653,-3.35139 0.53339,-0.40856 0.53338,-0.40855 2.71093,-0.72785 2.71093,-0.72785 3.61365,-0.53929 3.61365,-0.53929 h 0.88427 0.88426 l -0.0268,4.67431 -0.0268,4.67431 -0.41413,1.06296 -0.41413,1.06297 -0.85871,1.49467 -0.85871,1.49467 -1.25796,-0.0232 z m 0.15316,-0.71591 0.35278,0.0252 1.18578,-2.15837 1.18578,-2.15838 0.18931,-4.38364 0.18932,-4.38365 -0.84593,0.18934 -0.84593,0.18933 -2.99861,0.38578 -2.99861,0.38577 -2.29306,0.64324 -2.29305,0.64323 -0.97014,0.38024 -0.97014,0.38024 v 2.98215 2.98214 l 0.52351,0.52351 0.52351,0.52352 2.73968,0.90651 2.73969,0.90652 2.11666,0.50606 2.11667,0.50605 z m -13.6931,-12.32438 -1.47635,-0.0107 -0.54333,-0.31815 -0.54333,-0.31815 -4.21917,-1.05528 -4.21917,-1.05528 -2.02847,-0.24399 -2.02847,-0.24399 v -0.35512 -0.35512 l 3.93814,-6.13062 3.93814,-6.130623 h 0.56097 0.56096 l 2.95583,2.108684 2.95583,2.108687 0.39437,-0.233604 0.39437,-0.233606 2.92271,-1.87508 2.9227,-1.875081 h 0.50761 0.50761 l 1.68496,2.672032 1.68497,2.672027 2.20825,3.41339 2.20825,3.413384 -0.096,0.52917 -0.096,0.52916 -2.49925,0.2498 -2.49924,0.2498 -3.41083,0.90754 -3.41083,0.90753 -0.89946,0.34197 -0.89946,0.34198 -1.47633,-0.0107 z m 0.11115,-0.71423 0.52917,0.002 2.11667,-0.71623 2.11666,-0.71625 1.5875,-0.36147 1.5875,-0.36148 2.82223,-0.48188 2.82222,-0.48188 0.27773,-0.0192 0.27772,-0.0192 -1.37229,-2.02847 -1.3723,-2.028473 -2.08043,-3.33408 -2.08043,-3.334078 -0.24352,-0.356825 -0.24352,-0.35682 -1.57804,1.133263 -1.57804,1.133264 h -0.26181 -0.26181 l -1.09163,0.831183 -1.09163,0.831186 -0.74991,0.237008 -0.7499,0.237006 -2.86804,-2.126528 -2.86805,-2.126522 h -0.17265 -0.17266 l -2.34803,3.615973 -2.34803,3.61597 -1.3126,1.985223 -1.3126,1.98523 1.92186,0.22588 1.92185,0.22587 4.29465,1.0869 4.29466,1.08689 0.52917,0.30725 0.52917,0.30725 0.52916,0.002 z m -17.76346,-2.80822 -0.40459,-0.005 -0.37519,-0.25918 -0.3752,-0.25918 -2.35883,-3.10984 -2.35884,-3.109838 v -0.871444 -0.871445 l 1.58768,-0.680559 1.58767,-0.680553 3.79219,-1.214588 3.79218,-1.214591 1.16002,-0.594328 1.16002,-0.594331 0.52434,0.201207 0.52435,0.201211 -0.23647,0.942141 -0.23646,0.942139 -1.4145,2.152415 -1.41451,2.152409 -2.27463,3.439585 -2.27464,3.43958 -0.40459,-0.005 z m -0.2282,-1.08383 0.17639,0.0127 1.09477,-1.6666 1.09478,-1.666592 1.68307,-2.645833 1.68306,-2.645834 0.59618,-0.881943 0.59617,-0.881944 0.28079,-0.470112 0.28078,-0.470109 -1.00897,0.512723 -1.00897,0.512726 -4.93889,1.661461 -4.93888,1.661465 -0.27014,0.259397 -0.27014,0.259395 2.3868,3.218196 2.38681,3.218204 z m 36.29181,1.08923 h -0.64997 l -3.62162,-5.372128 -3.62161,-5.372127 -0.46752,-0.830651 -0.46752,-0.830651 0.20722,-0.54002 0.20722,-0.540023 0.61308,0.19318 0.61307,0.193183 4.23334,1.584579 4.23333,1.584574 2.11585,0.840766 2.11585,0.840762 0.10344,0.537056 0.10342,0.537059 -1.25055,1.73514 -1.25055,1.735138 -1.28326,1.852083 -1.28326,1.85208 z m 0.13249,-1.05833 h 0.26459 l 7.9e-4,-0.26458 7.9e-4,-0.26459 2.11541,-2.822217 2.1154,-2.822223 8e-4,-0.232198 7.9e-4,-0.232196 -2.02847,-0.710353 -2.02848,-0.710348 -1.94027,-0.761111 -1.94028,-0.761117 -1.23472,-0.36373 -1.23473,-0.363731 -0.96411,-0.496189 -0.96412,-0.496194 3.78634,5.650389 3.78632,5.650388 h 0.26459 z M 140.7522,92.723083 h -0.98967 l -2.17451,-1.940276 -2.17451,-1.94028 h -0.30827 -0.30827 v -0.739452 -0.739458 l 0.55231,-1.899856 0.5523,-1.899857 0.33934,-0.209727 0.33935,-0.209727 1.63828,1.085149 1.63828,1.085151 1.08604,-0.01101 1.08605,-0.01101 1.41111,-0.869127 1.41111,-0.869125 0.59654,-0.0019 0.59654,-0.0019 0.16785,0.271584 0.16785,0.271579 0.24753,2.512108 0.24754,2.51211 -2.56656,1.802418 -2.56655,1.802424 h -0.98968 z m 0.30785,-0.965091 0.60416,-0.231839 2.2232,-1.554122 2.22319,-1.554128 -0.15795,-0.581438 -0.15796,-0.581438 -0.22319,-1.323001 -0.2232,-1.323002 -1.65688,0.882031 -1.65689,0.882029 h -1.2765 -1.27649 l -1.29962,-0.881944 -1.29961,-0.881946 h -0.12622 -0.12621 l -0.38728,1.110975 -0.3873,1.11098 0.004,0.564716 0.004,0.564719 2.2965,2.014622 2.2965,2.014622 0.60416,-0.231836 z m 16.83893,-0.446019 h -0.41488 l -0.6185,-0.683437 -0.6185,-0.683437 0.43592,-1.345036 0.43591,-1.345036 0.98132,-1.940277 0.98133,-1.940277 0.50889,-0.677709 0.5089,-0.677706 0.57797,-0.08483 0.57796,-0.08483 v 0.615432 0.615431 l -1.05766,3.322103 -1.05767,3.322103 -0.41306,0.79375 -0.41305,0.79375 z m -0.19981,-1.411113 h 0.32443 l 0.59346,-1.786741 0.59347,-1.786745 -0.16428,-0.164266 -0.16427,-0.164272 -0.75361,1.751827 -0.75362,1.751827 v 0.199187 0.199183 z m 1.61586,-4.233333 h 0.17639 V 85.49114 85.31475 h -0.17639 -0.17639 v 0.17639 0.176387 z m 0.70555,-1.763887 h 0.17639 v -0.17639 -0.17639 h -0.17639 -0.17639 v 0.17639 0.17639 z m -36.50868,7.055554 h -0.37172 l -0.3387,-0.79375 -0.3387,-0.79375 -1.25691,-5.115277 -1.2569,-5.115277 -0.18449,-0.617363 -0.1845,-0.61736 h 0.80976 0.80976 l 2.08332,2.20486 2.08331,2.204863 2.06959,2.605527 2.06958,2.605529 v 0.632026 0.632024 l -2.81084,1.083971 -2.81084,1.083977 z m 0.14118,-1.058334 h 0.145 l 2.05986,-0.764553 2.05986,-0.764558 0.30762,-0.266251 0.30761,-0.266252 -1.18956,-1.483225 -1.18955,-1.483231 -2.07994,-2.33666 -2.07993,-2.336657 -0.61852,-0.660175 -0.6185,-0.660175 1.36968,5.246285 1.36967,5.246286 0.006,0.264583 0.006,0.264583 h 0.145 z m 29.1166,-0.709001 -0.15743,-0.0035 -1.78052,-0.829109 -1.78051,-0.829114 -0.60074,-2.160725 -0.60073,-2.160728 v -1.009002 -1.008983 l 0.64986,-0.588116 0.64986,-0.588116 1.31232,-1.905423 1.31231,-1.905426 0.49608,-3.470164 0.49608,-3.470164 0.0112,-1.499306 0.0112,-1.499225 h 0.57575 0.57575 l 3.43634,2.4534 3.43633,2.453401 0.9268,1.101442 0.92681,1.101447 v 1.230847 1.230847 l -0.40747,0.770557 -0.40747,0.770559 -1.49107,1.76389 -1.49108,1.763887 -1.47727,2.293056 -1.47727,2.293057 -0.19202,0.949918 -0.19201,0.949917 -1.30183,0.902166 -1.30182,0.902166 -0.15743,-0.0035 z m 0.0435,-1.079807 0.20097,0.0249 0.76917,-0.884629 0.76918,-0.884615 v -0.304832 -0.304832 l 1.81101,-2.779289 1.81101,-2.779295 1.71823,-2.061067 1.71823,-2.061069 0.22087,-0.880057 0.22088,-0.88006 -0.68544,-0.939427 -0.68545,-0.93943 -3.15286,-2.374886 -3.15287,-2.37489 -0.2486,-0.0063 -0.2486,-0.0064 -0.17176,1.14653 -0.17177,1.146527 -0.51044,3.587715 -0.51045,3.587718 -1.17612,1.527559 -1.17612,1.527564 -0.85236,0.952257 -0.85235,0.952251 0.66623,2.359861 0.66623,2.359861 1.41111,0.631716 1.41111,0.631717 z m -20.36706,-0.423206 -0.41055,0.13386 -2.8833,-3.635226 -2.8833,-3.63523 -3.4973,-3.351389 -3.4973,-3.351388 1.7e-4,-0.467666 1.8e-4,-0.467667 0.91111,-0.767057 0.91111,-0.767056 0.86486,-0.757205 0.86486,-0.757201 2.79158,-1.832726 2.79158,-1.832727 0.34665,0.214241 0.34665,0.214241 0.21904,2.022909 0.21905,2.022914 0.39104,2.469444 0.39105,2.469444 0.50163,1.008126 0.50164,1.008126 1.59985,1.599848 1.59985,1.59985 -0.20568,1.448967 -0.20568,1.448972 -0.62912,1.913869 -0.62913,1.913869 z m -0.21237,-1.457201 0.1164,-0.116395 0.68263,-2.387068 0.68265,-2.387069 -0.84373,-0.663675 -0.84373,-0.663681 -1.21655,-1.671032 -1.21654,-1.671031 -0.37615,-2.293054 -0.37615,-2.293056 -0.23718,-2.365026 -0.23718,-2.365026 -2.35828,1.65947 -2.35828,1.659471 -1.6593,1.214438 -1.65931,1.214437 v 0.253154 0.253156 l 2.69748,2.41296 2.69748,2.412966 1.80044,2.156989 1.80044,2.156986 1.39423,1.799241 1.39424,1.799241 z m 8.91319,-2.692831 -0.52917,-0.0094 -0.70555,-0.398053 -0.70556,-0.398055 -1.98031,-1.701069 -1.98031,-1.70107 -1.48333,-1.922669 -1.48333,-1.922674 -0.68847,-4.698725 -0.68846,-4.69873 0.16917,-0.710438 0.16917,-0.710438 1.86627,-1.402022 1.86627,-1.402021 2.60553,-2.03268 2.60553,-2.032678 h 0.8903 0.8903 l 3.55972,2.56395 3.55973,2.56395 0.97014,0.619181 0.97014,0.619186 v 1.19303 1.193035 l -0.54441,4.671338 -0.5444,4.671335 -0.31396,0.586645 -0.31397,0.586642 -2.68753,2.552898 -2.68754,2.552896 -1.1284,0.688028 -1.1284,0.688025 -0.52917,-0.0094 z m -0.0949,-1.046287 h 0.52957 l 1.68357,-1.23585 1.68357,-1.235856 2.08839,-2.232501 2.0884,-2.232501 0.43235,-4.028175 0.43234,-4.02817 0.17832,-1.234724 0.17832,-1.234723 -4.59088,-3.285797 -4.59089,-3.285796 -0.48748,0.287186 -0.48748,0.287187 -2.73612,2.116667 -2.73612,2.116666 -1.47809,1.303436 -1.47808,1.303432 0.63799,4.484042 0.63799,4.484039 0.43555,0.562526 0.43555,0.562525 1.38747,1.683068 1.38746,1.683067 1.91937,1.580126 1.91936,1.580126 z M 121.67842,68.734194 h -0.66195 l -0.19644,-0.5119 -0.19643,-0.5119 0.88486,-2.222129 0.88486,-2.222125 1.45534,-3.837831 1.45534,-3.837826 0.69669,-1.365645 0.6967,-1.365644 h 0.48538 0.48539 l 2.61965,1.244071 2.61967,1.244071 2.26764,0.460878 2.26765,0.460875 0.10666,0.718142 0.10666,0.718143 -1.69416,1.261089 -1.69416,1.261091 -3.175,2.341769 -3.175,2.341764 -2.14979,1.205563 -2.14979,1.205566 -0.63891,0.70599 -0.63891,0.705988 z m 1.16346,-1.91928 1.11953,-0.942022 1.65416,-0.838224 1.65415,-0.838226 4.38777,-3.287374 4.38777,-3.287374 0.0978,-0.334034 0.0978,-0.334034 -2.65494,-0.626472 -2.65494,-0.62647 -1.80625,-0.915297 -1.80625,-0.915294 -0.0754,0.111911 -0.0755,0.111913 -0.9725,2.293057 -0.9725,2.293053 -0.29446,0.705557 -0.29447,0.705556 -1.1222,2.99861 -1.12219,2.998611 -0.33344,0.834289 -0.33343,0.834287 z m 37.78842,1.566503 h -0.62497 l -7.22433,-5.14151 -7.22434,-5.14151 -0.86911,-0.8509 -0.86912,-0.850903 0.33995,-0.306451 0.33995,-0.306448 5.23105,-1.658946 5.23105,-1.658945 0.52197,0.433194 0.52197,0.433197 0.54413,1.262806 0.54413,1.262806 0.8204,2.293054 0.8204,2.293056 1.25737,3.527777 1.25736,3.52778 0.004,0.44097 0.004,0.440973 h -0.62497 z m -0.8576,-1.582684 0.10493,-0.09708 -1.42916,-4.229503 -1.42916,-4.229504 -1.06053,-2.338949 -1.06053,-2.338945 -0.0847,0.0078 -0.0847,0.0078 -4.72502,1.512536 -4.72502,1.512532 2.07919,1.50154 2.07918,1.501537 5.11528,3.64363 5.11527,3.64363 0.10493,-0.09708 z m -20.38965,-11.946448 -0.52916,0.06029 -1.38284,-0.328073 -1.38284,-0.328073 -2.85363,-0.87041 -2.85363,-0.870413 -0.79062,-0.553768 -0.79061,-0.553765 0.0274,-0.420968 0.0274,-0.420968 3.61322,-2.37753 3.61323,-2.37753 1.72954,-0.09192 1.72954,-0.09191 0.28036,2.116666 0.28036,2.116667 -0.0942,2.465702 -0.0943,2.465705 z m -0.79375,-0.961814 0.44097,0.02706 v -3.704166 -3.704166 h -1.00316 -1.00316 l -3.44879,2.258046 -3.44878,2.258047 0.83598,0.472646 0.83597,0.472646 3.175,0.946418 3.175,0.946414 z m 3.93936,0.737468 -0.55857,-0.0048 -0.23518,-0.235185 -0.23519,-0.235186 v -4.174551 -4.174535 l 1.67569,0.0035 1.6757,0.0035 1.94028,0.900195 1.94027,0.900196 2.02539,1.30122 2.02539,1.30122 0.002,0.529167 0.002,0.529167 -4.84989,1.680548 -4.84988,1.680552 -0.55857,-0.0048 z m 1.17592,-1.253913 1.14653,-0.246785 2.29305,-0.866148 2.29306,-0.866148 1.04151,-0.444444 1.0415,-0.444445 -2.45262,-1.455282 -2.45261,-1.455285 -1.54366,-0.543147 -1.54366,-0.543147 h -0.48481 -0.48482 v 3.555809 3.555807 z"
       id="path402" />
  </g>
</svg>
