<svg xmlns="http://www.w3.org/2000/svg" viewBox="0 0 150 150" width="150" height="150">
  <defs>
    <linearGradient id="bgGrad150" x1="0%" y1="0%" x2="100%" y2="100%">
      <stop offset="0%" style="stop-color:#5B9BD5"/>
      <stop offset="100%" style="stop-color:#4A8BC9"/>
    </linearGradient>
  </defs>
  <!-- Background rounded rectangle -->
  <rect x="8" y="8" width="134" height="134" rx="20" fill="url(#bgGrad150)"/>
  <rect x="8" y="8" width="134" height="134" rx="20" stroke="#3D7AB5" stroke-width="2" fill="none"/>
  
  <!-- Desk surface -->
  <rect x="28" y="83" width="94" height="9" rx="2" fill="#1E5C8A" stroke="#143D5C" stroke-width="1"/>
  
  <!-- Desk left drawers -->
  <rect x="28" y="92" width="28" height="35" rx="2" fill="#1E5C8A" stroke="#143D5C" stroke-width="1"/>
  <rect x="31" y="95" width="22" height="13" rx="1" fill="#2A6E9E" stroke="#143D5C" stroke-width="0.75"/>
  <circle cx="42" cy="101.5" r="2" fill="#143D5C"/>
  <rect x="31" y="110" width="22" height="13" rx="1" fill="#2A6E9E" stroke="#143D5C" stroke-width="0.75"/>
  <circle cx="42" cy="116.5" r="2" fill="#143D5C"/>
  
  <!-- Desk right side -->
  <rect x="88" y="92" width="34" height="35" rx="2" fill="#5B9BD5" stroke="none"/>
  <rect x="112" y="92" width="10" height="35" rx="1" fill="#1E5C8A" stroke="#143D5C" stroke-width="1"/>
  
  <!-- Document on desk -->
  <g transform="translate(30, 43)">
    <rect x="0" y="0" width="28" height="35" rx="2" fill="#FFFFFF" stroke="#CCCCCC" stroke-width="1"/>
    <line x1="4" y1="8" x2="24" y2="8" stroke="#4A8BC9" stroke-width="2" stroke-linecap="round"/>
    <line x1="4" y1="14" x2="21" y2="14" stroke="#7FB3DC" stroke-width="1.5" stroke-linecap="round"/>
    <line x1="4" y1="19" x2="23" y2="19" stroke="#7FB3DC" stroke-width="1.5" stroke-linecap="round"/>
    <line x1="4" y1="24" x2="19" y2="24" stroke="#7FB3DC" stroke-width="1.5" stroke-linecap="round"/>
    <path d="M20 0 L28 0 L28 8 L20 8 Z" fill="#E8E8E8"/>
  </g>
  
  <!-- Desk lamp -->
  <g transform="translate(85, 30)">
    <ellipse cx="18" cy="53" rx="11" ry="3" fill="#1E5C8A" stroke="#143D5C" stroke-width="1"/>
    <rect x="16" y="23" width="4" height="30" fill="#1E5C8A" stroke="#143D5C" stroke-width="1"/>
    <line x1="18" y1="23" x2="30" y2="8" stroke="#1E5C8A" stroke-width="4" stroke-linecap="round"/>
    <path d="M23 3 L38 3 L40 15 L20 15 Z" fill="#1E5C8A" stroke="#143D5C" stroke-width="1" stroke-linejoin="round"/>
    <ellipse cx="30" cy="16" rx="8" ry="2" fill="#FFE4B5" opacity="0.6"/>
  </g>
</svg>
