<svg xmlns="http://www.w3.org/2000/svg" viewBox="0 0 256 256" fill="none">
  <rect width="256" height="256" rx="48" fill="#1a1a2e"/>
  <circle cx="128" cy="100" r="50" fill="#e94560"/>
  <circle cx="108" cy="88" r="8" fill="#fff"/>
  <circle cx="148" cy="88" r="8" fill="#fff"/>
  <path d="M108 112 q20 16 40 0" stroke="#fff" stroke-width="3" fill="none" stroke-linecap="round"/>
  <rect x="78" y="60" width="12" height="24" rx="6" fill="#e94560" transform="rotate(-20 84 60)"/>
  <rect x="166" y="60" width="12" height="24" rx="6" fill="#e94560" transform="rotate(20 172 60)"/>
  <path d="M80 160 h96 l12 50 H68z" fill="#16213e"/>
  <rect x="98" y="170" width="60" height="8" rx="4" fill="#0f3460"/>
  <rect x="98" y="184" width="40" height="8" rx="4" fill="#0f3460"/>
  <circle cx="72" cy="200" r="6" fill="#e94560"/>
  <circle cx="184" cy="200" r="6" fill="#e94560"/>
  <path d="M72 200 l-16 20" stroke="#e94560" stroke-width="3" stroke-linecap="round"/>
  <path d="M184 200 l16 20" stroke="#e94560" stroke-width="3" stroke-linecap="round"/>
</svg>
