<?xml version="1.0" encoding="utf-8"?>
<!-- Generator: Adobe Illustrator 19.1.1, SVG Export Plug-In . SVG Version: 6.00 Build 0)  -->
<svg version="1.1" id="Layer_1" xmlns="http://www.w3.org/2000/svg" xmlns:xlink="http://www.w3.org/1999/xlink" x="0px" y="0px"
	 viewBox="-404 206 150 150" style="enable-background:new -404 206 150 150;" xml:space="preserve">
<style type="text/css">
	.st0{fill:url(#SVGID_1_);}
	.st1{fill:#35D7BB;}
	.st2{fill:#FFFFFF;}
</style>
<linearGradient id="SVGID_1_" gradientUnits="userSpaceOnUse" x1="-329" y1="356" x2="-329" y2="206">
	<stop  offset="0" style="stop-color:#2A374B"/>
	<stop  offset="0.9944" style="stop-color:#2F3C55"/>
	<stop  offset="1" style="stop-color:#2F3C55"/>
</linearGradient>
<rect x="-404" y="206" class="st0" width="150" height="150"/>
<g>
	<polyline class="st1" points="-392.3,293.7 -265.1,293.7 -265.1,293 -392.3,293 	"/>
	<path class="st2" d="M-392,267.4h4.5c5.6,0,8.6,2.8,8.6,7.9c0,5.1-3,8.1-8.5,8.1h-4.6V267.4z M-387.7,281.7c4.3,0,6.4-2.4,6.4-6.4
		c0-4-2.1-6.3-6.4-6.3h-2v12.7H-387.7z"/>
	<rect x="-374.2" y="267.4" class="st2" width="2.3" height="16"/>
	<polygon class="st2" points="-366.1,267.4 -363.8,267.4 -363.8,281.7 -355.9,281.7 -355.9,283.4 -366.1,283.4 	"/>
	<polygon class="st2" points="-351.9,267.4 -349.6,267.4 -349.6,281.7 -341.7,281.7 -341.7,283.4 -351.9,283.4 	"/>
	<rect x="-337.7" y="267.4" class="st2" width="2.3" height="16"/>
	<path class="st2" d="M-329.6,267.4h2.4l6.6,10l2,3.3h0.1c-0.1-1.6-0.3-3.4-0.3-5.1v-8.2h2.2v16h-2.4l-6.5-10l-2-3.3h-0.1
		c0.1,1.6,0.3,3.3,0.3,5v8.3h-2.2V267.4z"/>
	<path class="st2" d="M-303.6,267.1c2.5,0,4.1,1,5.2,2l-1.3,1.3c-0.9-0.9-2-1.5-3.8-1.5c-3.7,0-6,2.5-6,6.4c0,4,2.2,6.5,6,6.5
		c1.3,0,2.6-0.4,3.3-0.9v-4.2h-3.8v-1.7h5.9v6.7c-1.2,1-3.2,1.8-5.6,1.8c-4.8,0-8.1-3.1-8.1-8.3C-312,270.3-308.5,267.1-303.6,267.1
		z"/>
	<polygon class="st2" points="-293.1,267.4 -282.7,267.4 -282.7,269.1 -290.8,269.1 -290.8,274.1 -283.9,274.1 -283.9,275.9 
		-290.8,275.9 -290.8,281.7 -282.4,281.7 -282.4,283.4 -293.1,283.4 	"/>
	<path class="st2" d="M-267.8,283.4l-4.4-6.7h-3.3v6.7h-2.3v-16h5.7c3.7,0,6.3,1.2,6.3,4.5c0,2.5-1.6,4-4.1,4.5l4.6,7H-267.8z
		 M-275.4,275h3c2.8,0,4.4-1,4.4-3.1c0-2.1-1.5-2.8-4.4-2.8h-3V275z"/>
</g>
</svg>
