<?xml version="1.0" encoding="utf-8"?>
<!-- Generator: Adobe Illustrator 19.1.0, SVG Export Plug-In . SVG Version: 6.00 Build 0)  -->
<!DOCTYPE svg PUBLIC "-//W3C//DTD SVG 1.1//EN" "http://www.w3.org/Graphics/SVG/1.1/DTD/svg11.dtd">
<svg version="1.1" id="Layer_1" xmlns="http://www.w3.org/2000/svg" xmlns:xlink="http://www.w3.org/1999/xlink" x="0px" y="0px"
	 viewBox="-308 438 150 150" style="enable-background:new -308 438 150 150;" xml:space="preserve">
<style type="text/css">
	.st0{fill:url(#SVGID_1_);}
	.st1{fill:#3F3F3F;}
</style>
<linearGradient id="SVGID_1_" gradientUnits="userSpaceOnUse" x1="-233" y1="439.8" x2="-233" y2="589.8" gradientTransform="matrix(1 0 0 -1 0 1028)">
	<stop  offset="0" style="stop-color:#F2F2DF"/>
	<stop  offset="0.1919" style="stop-color:#F5F5E6"/>
	<stop  offset="1" style="stop-color:#FFFFFF"/>
</linearGradient>
<rect x="-308" y="438.2" class="st0" width="150" height="150"/>
<g>
	<path class="st1" d="M-234.4,489.3l-0.3,0l4.2,41.8c0.1,1,0.9,1.7,1.9,1.7l0.2,0c1-0.1,1.7-0.9,1.7-1.9l0-0.2l-4.2-41.8
		c-0.1-1-0.9-1.7-1.9-1.7l-0.2,0c-1,0.1-1.7,0.9-1.7,1.9l0,0.2L-234.4,489.3l0.3,0l0-0.1c0-0.7,0.5-1.3,1.2-1.3l0.1,0
		c0.7,0,1.3,0.5,1.3,1.2l4.2,41.8l0,0.1c0,0.7-0.5,1.3-1.2,1.3l-0.1,0c-0.7,0-1.3-0.5-1.3-1.2l-4.2-41.8L-234.4,489.3z
		 M-202.4,546.8l0.2-0.2l-25.3-17.2c-0.3-0.2-0.7-0.3-1.1-0.3c-0.3,0-0.6,0.1-0.8,0.2l-33.1,15.8c-0.7,0.3-1.1,1-1.1,1.7
		c0,0.3,0.1,0.6,0.2,0.8c0.3,0.7,1,1.1,1.7,1.1c0.3,0,0.6-0.1,0.8-0.2l32.1-15.3l24.4,16.6c0.3,0.2,0.7,0.3,1.1,0.3
		c0.6,0,1.2-0.3,1.6-0.8c0.2-0.3,0.3-0.7,0.3-1.1c0-0.6-0.3-1.2-0.8-1.6L-202.4,546.8l0.3-0.1l0,0l-0.1-0.1L-202.4,546.8l-0.3,0.1
		l0,0l0.1,0.1c0.4,0.3,0.6,0.7,0.6,1.1c0,0.3-0.1,0.5-0.2,0.7c-0.3,0.4-0.7,0.6-1.1,0.6c-0.3,0-0.5-0.1-0.7-0.2l-24.5-16.7l-0.3,0
		l-32.3,15.4c-0.2,0.1-0.4,0.1-0.6,0.1c-0.5,0-1-0.3-1.2-0.8c-0.1-0.2-0.1-0.4-0.1-0.6c0-0.5,0.3-1,0.8-1.2l33.1-15.8
		c0.2-0.1,0.4-0.1,0.6-0.1c0.3,0,0.5,0.1,0.8,0.2l25.3,17.2L-202.4,546.8l-0.3,0.1L-202.4,546.8z"/>
	<path class="st1" d="M-234.4,487.8l-0.3-0.1l-29.7,58.3c-0.1,0.3-0.2,0.6-0.2,0.9c0,0.7,0.3,1.3,1,1.7l29.7,17.1
		c0.3,0.2,0.6,0.3,1,0.3c0.3,0,0.7-0.1,1-0.3c0.6-0.3,1-1,1-1.7h-0.2l0.2,0l0,0h-0.2l0.2,0l-0.3,0l0.3,0l0,0l-0.3,0l0.3,0l0,0
		l-0.1-86.9c0-1.1-0.9-1.9-1.9-1.9h0l0,0c-1.1,0-1.9,0.9-1.9,1.9l-0.1,11.3l0,0c0,0.3,0.1,0.6,0.2,0.9l28.9,58.1l-27.9,15
		c-0.6,0.3-1,1-1,1.7c0,0.3,0.1,0.6,0.2,0.9c0.3,0.6,1,1,1.7,1c0.3,0,0.6-0.1,0.9-0.2l29.6-15.9c0.6-0.3,1-1,1-1.7
		c0-0.3-0.1-0.6-0.2-0.9l-29.5-59.3l0.1-10.8v0l0,0c0-0.5-0.2-1-0.6-1.4c-0.4-0.4-0.9-0.6-1.4-0.6h0l0,0c-0.5,0-1,0.2-1.4,0.6
		c-0.4,0.4-0.6,0.9-0.6,1.4v0l0,0l0.3,0l-0.3,0l0.1,83.5l-25.2-14.5l28.9-56.7c0.1-0.3,0.2-0.6,0.2-0.9c0-0.7-0.4-1.4-1.1-1.7
		c-0.3-0.1-0.6-0.2-0.9-0.2c-0.7,0-1.4,0.4-1.7,1.1L-234.4,487.8l0.3-0.1l0,0c-0.1-0.1-0.2-0.2-0.3-0.2c-0.1,0-0.2,0.1-0.3,0.2
		L-234.4,487.8l-0.3,0.1l0,0c0.1,0.1,0.2,0.2,0.3,0.2c0.1,0,0.2-0.1,0.3-0.2c0.2-0.5,0.7-0.7,1.2-0.7c0.2,0,0.4,0,0.6,0.1
		c0.5,0.2,0.7,0.7,0.7,1.2c0,0.2,0,0.4-0.1,0.6l-29,56.9c-0.1,0.1,0,0.3,0.1,0.4l25.9,14.9l0.3,0l0.1-0.3l-0.1-84.1l0,0l-0.3,0
		l0.3,0l0,0l-0.3,0l0.3,0l-0.2,0h0.2l0,0l-0.2,0h0.2c0-0.4,0.1-0.7,0.4-0.9c0.3-0.3,0.6-0.4,0.9-0.4l0,0h0c0.4,0,0.7,0.1,0.9,0.4
		c0.2,0.3,0.4,0.6,0.4,0.9l0,0v0l-0.1,10.9l0,0.1l29.6,59.4c0.1,0.2,0.1,0.4,0.1,0.6c0,0.5-0.3,0.9-0.7,1.2l-29.6,15.9
		c-0.2,0.1-0.4,0.2-0.6,0.2c-0.5,0-0.9-0.3-1.2-0.7c-0.1-0.2-0.2-0.4-0.2-0.6c0-0.5,0.3-0.9,0.7-1.2l28.2-15.1
		c0.1-0.1,0.2-0.3,0.1-0.4l-29-58.3c-0.1-0.2-0.1-0.4-0.1-0.6l0,0l0.1-11.3c0-0.7,0.6-1.3,1.3-1.3l0,0h0c0.7,0,1.3,0.6,1.3,1.3
		l0.1,86.9l0.3,0l-0.3,0l0,0v0c0,0.5-0.3,0.9-0.7,1.2c-0.2,0.1-0.4,0.2-0.7,0.2c-0.2,0-0.5-0.1-0.7-0.2l-29.7-17.1
		c-0.4-0.2-0.7-0.7-0.7-1.2c0-0.2,0-0.4,0.1-0.6l29.7-58.3L-234.4,487.8l-0.3,0.1L-234.4,487.8z M-243.3,511.3l-0.1,0.3l9.9,5.7
		c0.3,0.2,0.6,0.3,1,0.3c0.4,0,0.7-0.1,1-0.3l10-6.2c0.6-0.4,0.9-1,0.9-1.6c0-0.3-0.1-0.7-0.3-1c-0.4-0.6-1-0.9-1.6-0.9
		c-0.3,0-0.7,0.1-1,0.3l-9,5.6l-8.9-5.1c-0.3-0.2-0.6-0.3-1-0.3c-0.7,0-1.3,0.3-1.7,1l0,0.2l0.1,0.2l0.2,0l0.2-0.1l0,0l0,0l0,0l0,0
		l0,0l0,0l-0.2-0.1l0.2,0.2l0,0l-0.2-0.1l0.2,0.2l-0.2-0.2l0.2,0.2l0,0l-0.2-0.2l0.2,0.2l-0.2-0.2l0.2,0.2l0,0l-0.2-0.2l0.2,0.2
		l-0.2-0.3v0.3l0.2,0l-0.2-0.3v0.3v-0.3l-0.2,0.2l0.2,0.1v-0.3l-0.2,0.2l0.2-0.2l-0.3,0.1l0.1,0.2l0.2-0.2l-0.3,0.1l0.3-0.1h-0.3
		l0,0.1l0.3-0.1h-0.3h0.3l-0.3-0.1l0,0.1h0.3l-0.3-0.1l0.2,0.1l-0.2-0.1l0,0l0.2,0.1l-0.2-0.1c0,0-0.2,0.5-0.2,1
		c0,0.5,0.2,1.2,0.9,1.6c0.1,0.1,0.3,0,0.4,0c0.1-0.1,0.1-0.2,0.1-0.4l0,0L-243.3,511.3l-0.1,0.3L-243.3,511.3l-0.3,0.1l0,0
		L-243.3,511.3l0.1-0.3c-0.5-0.3-0.6-0.7-0.6-1.1c0-0.2,0-0.4,0.1-0.6l0.1-0.2l0-0.1l0,0l0,0l0-0.1l0-0.1l-0.1-0.1l-0.2-0.1l-0.2,0
		l-0.1,0.1l0,0.1c-0.1,0.1,0,0.3,0.1,0.4c0.1,0.1,0.3,0,0.4-0.1c0.2-0.4,0.7-0.7,1.2-0.7c0.2,0,0.5,0.1,0.7,0.2l9,5.2l0.3,0l9.2-5.6
		c0.2-0.1,0.5-0.2,0.7-0.2c0.4,0,0.9,0.2,1.1,0.6c0.1,0.2,0.2,0.5,0.2,0.7c0,0.4-0.2,0.9-0.6,1.1l-10,6.2c-0.2,0.1-0.5,0.2-0.7,0.2
		c-0.2,0-0.5-0.1-0.7-0.2l-9.9-5.7c-0.1-0.1-0.3,0-0.4,0c-0.1,0.1-0.1,0.2-0.1,0.4L-243.3,511.3z M-252.9,529.2l-0.2,0.3l19.5,11.7
		c0.3,0.2,0.6,0.3,1,0.3c0.3,0,0.6-0.1,0.9-0.2l19.8-10.6c0.7-0.3,1-1,1-1.7c0-0.3-0.1-0.6-0.2-0.9c-0.3-0.7-1-1-1.7-1
		c-0.3,0-0.6,0.1-0.9,0.2l-18.8,10.1l-18.6-11.1c-0.3-0.2-0.7-0.3-1-0.3c-0.7,0-1.3,0.3-1.7,0.9c-0.2,0.3-0.3,0.7-0.3,1
		c0,0.7,0.3,1.3,0.9,1.7c0.1,0.1,0.3,0.1,0.4,0c0.1-0.1,0.1-0.2,0.1-0.4l0,0L-252.9,529.2l-0.2,0.3L-252.9,529.2l-0.3,0.1l0,0
		L-252.9,529.2l0.2-0.3c-0.4-0.2-0.6-0.7-0.6-1.1c0-0.2,0.1-0.5,0.2-0.7c0.2-0.4,0.7-0.6,1.1-0.6c0.2,0,0.5,0.1,0.7,0.2l18.7,11.2
		l0.3,0l19-10.1c0.2-0.1,0.4-0.2,0.6-0.2c0.5,0,0.9,0.3,1.2,0.7c0.1,0.2,0.2,0.4,0.2,0.6c0,0.5-0.3,0.9-0.7,1.2l-19.8,10.6
		c-0.2,0.1-0.4,0.2-0.6,0.2c-0.2,0-0.5-0.1-0.7-0.2l-19.5-11.7c-0.1-0.1-0.3-0.1-0.4,0s-0.1,0.2-0.1,0.4L-252.9,529.2z"/>
	<path class="st1" d="M-246.6,475.3l0.3,0c0.5-4.4,2.4-7.7,4.9-10c2.5-2.3,5.7-3.5,8.8-3.5v-0.2l0,0.2l0,0v-0.2l0,0.2l0,0
		c2.8,0,5.6,1,7.9,3c2.3,2.1,4.3,5.3,5.2,10.1c0.2,0.9,1,1.6,1.9,1.6c0.1,0,0.2,0,0.4,0c0.9-0.2,1.6-1,1.6-1.9c0-0.1,0-0.2,0-0.4
		c-1.1-5.4-3.4-9.5-6.4-12.2c-3-2.7-6.8-4-10.5-4l0,0l0,0c-4.1,0-8.2,1.6-11.4,4.5c-3.2,2.9-5.5,7.2-6.1,12.4l0,0.2
		c0,1,0.7,1.8,1.7,1.9l0.2,0c1,0,1.8-0.7,1.9-1.7l0-0.2l0,0L-246.6,475.3l0.3,0L-246.6,475.3l-0.3,0.1l0,0L-246.6,475.3l-0.3,0
		c-0.1,0.7-0.7,1.2-1.3,1.2l-0.2,0c-0.7-0.1-1.2-0.7-1.2-1.3l0-0.2c0.6-5.1,2.9-9.2,6-12c3.1-2.8,7-4.3,11-4.3h0l0,0
		c3.6,0,7.2,1.3,10.1,3.9c2.9,2.6,5.2,6.6,6.2,11.9l0,0.3c0,0.6-0.4,1.2-1.1,1.3l-0.3,0c-0.6,0-1.2-0.4-1.3-1.1
		c-0.9-4.8-2.9-8.2-5.4-10.4c-2.4-2.2-5.4-3.2-8.3-3.2l0,0.3l0-0.3l0,0c-3.3,0-6.6,1.3-9.2,3.6c-2.6,2.4-4.6,5.9-5.1,10.4l0,0.2
		L-246.6,475.3z"/>
	<path class="st1" d="M-230.3,475.8l0.3,0c0-1.7-1.3-3.1-3-3.1h0c-1.7,0-3,1.4-3,3.1v0c0,1.7,1.3,3.1,3,3.1h0c1.7,0,3-1.4,3-3.1v0
		L-230.3,475.8l-0.3,0c0,1.4-1.1,2.5-2.4,2.5h0c-1.3,0-2.4-1.1-2.4-2.5v0c0-1.4,1.1-2.5,2.4-2.5h0c1.3,0,2.4,1.1,2.4,2.5v0
		L-230.3,475.8z"/>
	<path class="st1" d="M-231.4,475.8l0.3,0c0-1-0.8-1.9-1.9-1.9h0c-1.1,0-1.9,0.9-1.9,1.9v0c0,1,0.8,1.9,1.9,1.9h0
		c1.1,0,1.9-0.9,1.9-1.9v0L-231.4,475.8l-0.3,0c0,0.7-0.6,1.3-1.3,1.3h0c-0.7,0-1.3-0.6-1.3-1.3v0c0-0.7,0.6-1.3,1.3-1.3h0
		c0.7,0,1.3,0.6,1.3,1.3v0L-231.4,475.8z"/>
</g>
</svg>
