<?xml version="1.0" encoding="utf-8"?>
<!-- Generator: Adobe Illustrator 19.1.0, SVG Export Plug-In . SVG Version: 6.00 Build 0)  -->
<!DOCTYPE svg PUBLIC "-//W3C//DTD SVG 1.1//EN" "http://www.w3.org/Graphics/SVG/1.1/DTD/svg11.dtd">
<svg version="1.1" id="Layer_1" xmlns="http://www.w3.org/2000/svg" xmlns:xlink="http://www.w3.org/1999/xlink" x="0px" y="0px"
	 viewBox="0 0 150 150" style="enable-background:new 0 0 150 150;" xml:space="preserve">
<style type="text/css">
	.st0{fill:#242628;}
	.st1{fill:#ADB4B7;}
</style>
<rect x="0.2" y="-0.1" class="st0" width="150" height="150"/>
<g>
	<g>
		<path class="st1" d="M24.3,83.2c0-6.6,0-12.6,0-19.5c33.6,0,67,0,101.4,0c0,6.3,0,12.6,0,19.5C91.8,83.2,58.4,83.2,24.3,83.2z"/>
		<path class="st1" d="M84.4,22.9c0,6.8,0,12.1,0,18.2c-19.9,0-39.4,0-59.9,0c0-5.7,0-11.6,0-18.2C44.4,22.9,63.9,22.9,84.4,22.9z"
			/>
		<path class="st1" d="M86.1,124.4c0-6.7,0-12.7,0-19.3c13.4,0,26.2,0,39.7,0c0,6.4,0,12.3,0,19.3
			C113.1,124.4,100.3,124.4,86.1,124.4z"/>
		<path class="st1" d="M24,124.5c0-6.9,0-12.5,0-19.1c13,0,25.8,0,39.6,0c0,5.9,0,12,0,19.1C50.7,124.5,37.9,124.5,24,124.5z"/>
		<path class="st1" d="M107.3,41c0-6.3,0-11.6,0-18.1c6.2,0,11.9,0,18.5,0c0,5.8,0,11.5,0,18.1C120.1,41,114.3,41,107.3,41z"/>
	</g>
</g>
</svg>
