<?xml version="1.0" encoding="utf-8"?>
<!-- Generator: Adobe Illustrator 19.1.0, SVG Export Plug-In . SVG Version: 6.00 Build 0)  -->
<!DOCTYPE svg PUBLIC "-//W3C//DTD SVG 1.1//EN" "http://www.w3.org/Graphics/SVG/1.1/DTD/svg11.dtd">
<svg version="1.1" id="Layer_1" xmlns="http://www.w3.org/2000/svg" xmlns:xlink="http://www.w3.org/1999/xlink" x="0px" y="0px"
	 viewBox="11 -11 150 150" style="enable-background:new 11 -11 150 150;" xml:space="preserve">
<style type="text/css">
	.st0{fill:#0085D3;}
	.st1{fill:#0098E7;}
	.st2{fill:#00A6F6;}
	.st3{fill:#F3F3F3;}
	.st4{fill:#FEFEFE;}
	.st5{fill:#616161;}
</style>
<g>
	<path class="st0" d="M147.6,100.5c-1.2,0.8-2.4,1.4-3.6,2.1c-19.5,11.3-39,22.5-58.5,33.8c-0.3,0.2-0.5,0.2-0.8,0
		c-20.6-11.9-41.2-23.8-61.8-35.7c-0.1-0.1-0.2-0.1-0.3-0.2c0-0.3,0.2-0.4,0.4-0.5c2.9-1.6,5.7-3.3,8.6-5c0.4-0.2,0.8-0.6,1.3-0.6
		c0.9,0.3,1.7,0.9,2.6,1.4c6.2,3.5,12.3,7.1,18.5,10.7c4.2,2.4,8.5,4.9,12.7,7.4c4.5,2.6,9.1,5.2,13.6,7.9c1.4,0.8,2.8,1.6,4.2,2.4
		c0.3,0.2,0.6,0.2,0.9,0c3.8-2.2,7.6-4.4,11.4-6.6c5.1-2.9,10.1-5.8,15.2-8.8c4-2.3,7.9-4.6,11.9-6.9c4.2-2.5,8.5-4.9,12.7-7.3
		c0.1-0.1,0.2-0.1,0.4-0.1c0.7,0.2,1.3,0.6,1.9,1c2.7,1.6,5.4,3.1,8.1,4.7C147.3,100.1,147.6,100.2,147.6,100.5z"/>
	<path class="st1" d="M147.6,100.5c-0.8-0.6-1.8-1.1-2.6-1.6c-2.2-1.3-4.3-2.5-6.5-3.8c-0.4-0.3-0.9-0.5-1.3-0.8
		c-0.1-0.2-0.1-0.4-0.1-0.6c0-19.5,0-38.9,0-58.4c0-0.4,0-0.8,0-1.2c-0.1-0.3-0.3-0.5-0.6-0.6c-6.8-3.9-13.6-7.8-20.4-11.8
		c-6.3-3.6-12.6-7.3-18.8-10.9c-3.9-2.3-7.8-4.5-11.8-6.8c-0.2-0.1-0.5-0.3-0.5-0.6c-0.1-1.5,0-2.9,0-4.4c0-2.1,0-4.3,0-6.4
		c0-0.3-0.1-0.6,0.3-0.8C87.4-6.6,89.7-5.3,92-4c18.3,10.6,36.6,21.2,55,31.7c0.5,0.3,0.7,0.6,0.7,1.2c0,23.6,0,47.3,0,70.9
		C147.7,100,147.8,100.3,147.6,100.5z"/>
	<path class="st2" d="M85.2-7.9c-0.2,0.2-0.1,0.4-0.1,0.6c0,3.7,0,7.5,0,11.2C85,4,84.8,4.1,84.7,4.2c-8.2,4.7-16.4,9.5-24.6,14.2
		c-7.8,4.5-15.6,9-23.3,13.5c-1,0.6-2.1,1.2-3.2,1.8c-0.2,0.1-0.5,0.3-0.7,0.5c-0.1,0.3-0.1,0.7-0.1,1c0,19.3,0,38.7,0,58
		c0,0.4,0.1,0.8,0.1,1.3c-1,0.4-2,1.1-2.9,1.6c-2.3,1.3-4.5,2.6-6.8,3.9c-0.3,0.1-0.5,0.3-0.7,0.5c-0.2-0.2-0.1-0.5-0.1-0.8
		c0-22.4,0-44.8,0-67.3c0-1.3,0-2.6,0-3.9c0-0.4,0.1-0.6,0.4-0.8c12.8-7.4,25.6-14.8,38.4-22.2C69,1.2,76.7-3.3,84.5-7.7
		C84.7-7.8,84.9-8.1,85.2-7.9z"/>
	<path class="st3" d="M32.9,94.5c-0.3-0.2-0.2-0.5-0.2-0.7c0-7.2,0-14.4,0-21.7c0-12.5,0-24.9,0-37.4c0-0.3-0.1-0.5,0.2-0.7
		c1,0.5,1.9,1,2.8,1.6c4.7,2.7,9.3,5.4,14,8.1c4.3,2.5,8.6,5,12.9,7.5c5,2.9,9.9,5.7,14.9,8.6c2.3,1.3,4.6,2.6,6.9,4
		c0.5,0.3,0.8,0.3,1.3,0c5.8-3.4,11.6-6.7,17.4-10.1c5-2.9,10-5.8,15-8.7c5.2-3,10.3-6,15.5-8.9c1-0.6,1.9-1.1,2.9-1.7
		c0.2-0.1,0.4-0.3,0.7-0.3c0.1,0.2,0.1,0.4,0.1,0.6c0,19.7,0,39.5,0,59.2c0,0.2,0,0.4-0.1,0.6c-3.7,2.2-7.5,4.3-11.2,6.5
		c-13.5,7.8-27,15.6-40.4,23.3c-0.4,0.2-0.6,0.2-1,0c-17-9.8-34-19.6-51-29.4C33.3,94.7,33.1,94.6,32.9,94.5z"/>
	<path class="st4" d="M137.1,34c-1.4,0.8-2.9,1.7-4.3,2.5c-1.9,1.1-3.8,2.2-5.8,3.3c-2.2,1.3-4.4,2.5-6.6,3.8c-2.3,1.3-4.6,2.7-7,4
		c-2.2,1.3-4.3,2.5-6.5,3.8c-2.3,1.3-4.6,2.7-7,4c-2.2,1.3-4.3,2.5-6.5,3.8c-1.9,1.1-3.8,2.2-5.7,3.3C87,63,86.2,63.5,85.4,64
		c-0.3,0.2-0.6,0.2-0.9,0c-1.6-1-3.3-1.9-4.9-2.8c-2.2-1.3-4.3-2.5-6.5-3.8c-1.9-1.1-3.8-2.2-5.7-3.3c-2.2-1.3-4.4-2.5-6.6-3.8
		c-2.3-1.3-4.6-2.7-7-4c-2.2-1.3-4.3-2.5-6.5-3.8c-2.1-1.2-4.3-2.5-6.4-3.7c-2.2-1.3-4.4-2.5-6.6-3.8c-0.5-0.3-1.1-0.5-1.5-1
		c2.4-1.4,4.7-2.7,7.1-4.1c14.8-8.6,29.7-17.1,44.5-25.7C84.7,4,84.9,3.9,85,3.8c2.8,1.6,5.5,3.2,8.3,4.8
		c14.4,8.3,28.8,16.6,43.2,24.9C136.7,33.7,137,33.8,137.1,34z"/>
	<path class="st5" d="M64.4,47.7c0.5-0.3,0.9-0.5,1.2-0.7c14.1-8.1,28.2-16.3,42.3-24.5c0.4-0.2,0.7-0.3,1.1,0
		c0.8,0.5,1.7,1,2.5,1.5c-0.1,0.2-0.3,0.2-0.4,0.3c-14.4,8.4-28.9,16.7-43.3,25.1c-0.3,0.1-0.4,0.2-0.7,0
		C66.3,48.9,65.4,48.3,64.4,47.7z"/>
	<path class="st5" d="M72.2,52.2c2.4-1.4,4.6-2.7,6.9-4c12.3-7.1,24.5-14.2,36.8-21.2c0.4-0.2,0.6-0.2,1,0c0.9,0.5,1.7,1,2.7,1.6
		c-1.6,0.9-3.2,1.8-4.7,2.7c-13,7.5-26,15-38.9,22.5c-0.4,0.2-0.6,0.2-1,0C74,53.3,73.2,52.8,72.2,52.2z"/>
	<path class="st5" d="M106.2,44.9c-2.8,1.7-5.6,3.3-8.3,4.8c-4.9,2.9-9.8,5.7-14.7,8.6c-0.3,0.2-0.5,0.2-0.9,0
		c-0.9-0.6-1.8-1.1-2.6-1.6c0-0.2,0.1-0.2,0.2-0.3c7.6-4.4,15.2-8.8,22.8-13.2c0.3-0.1,0.4-0.1,0.7,0
		C104.3,43.8,105.2,44.3,106.2,44.9z"/>
	<path class="st5" d="M72.8,28.3c-0.7,0.4-1.4,0.8-2.1,1.2c-6.2,3.5-12.3,7.1-18.5,10.7c-0.4,0.2-0.7,0.2-1.1,0
		c-0.8-0.5-1.7-1-2.5-1.5c0-0.2,0.2-0.2,0.4-0.3c6.7-3.9,13.5-7.7,20.2-11.6c0.3-0.2,0.6-0.2,0.9,0C71,27.2,71.9,27.7,72.8,28.3z"/>
	<path class="st5" d="M40.7,34c2-1.2,3.9-2.3,5.8-3.4c2.3-1.3,4.6-2.7,6.9-4c0.3-0.2,0.5-0.2,0.8,0c0.9,0.6,1.8,1.1,2.8,1.6
		c-0.2,0.1-0.3,0.2-0.4,0.3c-4.1,2.4-8.2,4.8-12.3,7.2c-0.3,0.2-0.5,0.2-0.8,0C42.6,35.2,41.7,34.6,40.7,34z"/>
</g>
</svg>
